<svg width="22" height="20" viewBox="0 0 22 20" fill="none" xmlns="http://www.w3.org/2000/svg">
<path fill-rule="evenodd" clip-rule="evenodd" d="M13.2301 5.9668C13.2301 8.75899 10.9452 10.9966 8.09406 10.9966C5.24391 10.9966 2.95801 8.75899 2.95801 5.9668C2.95801 3.17461 5.24391 0.937012 8.09406 0.937012C10.9452 0.937012 13.2301 3.17461 13.2301 5.9668ZM0.332031 16.6918C0.332031 14.1071 3.90763 13.4604 8.09397 13.4604C12.3031 13.4604 15.8559 14.1294 15.8559 16.7161C15.8559 19.3008 12.2803 19.9475 8.09397 19.9475C3.88489 19.9475 0.332031 19.2786 0.332031 16.6918ZM15.3014 6.05798C15.3014 7.47989 14.8653 8.80666 14.1006 9.90876C14.021 10.0221 14.0913 10.1749 14.2298 10.1992C14.422 10.2306 14.6194 10.2498 14.8209 10.2539C16.8257 10.3055 18.6249 9.04145 19.1219 7.13782C19.8587 4.31325 17.6969 1.7771 14.9428 1.7771C14.6442 1.7771 14.3579 1.80746 14.0789 1.86312C14.0406 1.87122 13.9993 1.88943 13.9786 1.92182C13.9518 1.96331 13.9714 2.01695 13.9983 2.05237C14.826 3.18888 15.3014 4.57233 15.3014 6.05798ZM18.6209 12.2402C19.9685 12.4983 20.8541 13.0235 21.221 13.7896C21.5321 14.4171 21.5321 15.1457 21.221 15.7732C20.6599 16.9593 18.8493 17.3408 18.1456 17.439C17.9999 17.4592 17.8831 17.3378 17.8986 17.1941C18.2582 13.907 15.3988 12.3485 14.6588 11.9902C14.6278 11.973 14.6206 11.9487 14.6237 11.9325C14.6258 11.9224 14.6392 11.9062 14.663 11.9032C16.2637 11.8728 17.9854 12.0884 18.6209 12.2402Z" fill="#71B1FC"/>
</svg>
