<svg width="22" height="16" viewBox="0 0 22 16" fill="none" xmlns="http://www.w3.org/2000/svg">
<path fill-rule="evenodd" clip-rule="evenodd" d="M15.1583 4.23285C15.1583 6.58253 13.2851 8.4666 10.949 8.4666C8.61292 8.4666 6.73974 6.58253 6.73974 4.23285C6.73974 1.88227 8.61292 0 10.949 0C13.2851 0 15.1583 1.88227 15.1583 4.23285ZM10.949 16C7.51785 16 4.58809 15.456 4.58809 13.2802C4.58809 11.1034 7.49904 10.5396 10.949 10.5396C14.3802 10.5396 17.31 11.0836 17.31 13.2604C17.31 15.4362 14.399 16 10.949 16ZM16.9571 4.30923C16.9571 5.50704 16.5998 6.62289 15.973 7.55051C15.9086 7.64598 15.9659 7.77476 16.0796 7.79458C16.2363 7.8216 16.3984 7.83691 16.5631 7.84141C18.2062 7.88464 19.6809 6.82102 20.0883 5.21974C20.6918 2.84124 18.9198 0.705902 16.6634 0.705902C16.4181 0.705902 16.1835 0.73202 15.9551 0.778851C15.9238 0.786056 15.8907 0.800466 15.8728 0.828385C15.8513 0.862608 15.8674 0.908539 15.8889 0.938259C16.5667 1.8938 16.9571 3.05919 16.9571 4.30923ZM19.6782 9.51257C20.7823 9.72962 21.5084 10.1727 21.8093 10.8167C22.0636 11.3453 22.0636 11.9586 21.8093 12.4864C21.349 13.4851 19.8654 13.8058 19.2887 13.8886C19.1696 13.9066 19.0738 13.8031 19.0864 13.6833C19.3809 10.9157 17.0377 9.60353 16.4315 9.30183C16.4055 9.28832 16.4002 9.26761 16.4028 9.255C16.4046 9.24599 16.4154 9.23158 16.4351 9.22888C17.7468 9.20456 19.1571 9.38469 19.6782 9.51257ZM5.43711 7.84132C5.60186 7.83681 5.76304 7.82241 5.92063 7.79449C6.03434 7.77467 6.09165 7.64589 6.02718 7.55042C5.4004 6.6228 5.04313 5.50695 5.04313 4.30914C5.04313 3.0591 5.43353 1.89371 6.11135 0.938167C6.13284 0.908447 6.14806 0.862516 6.12747 0.828293C6.10956 0.801275 6.07553 0.785965 6.04509 0.77876C5.81587 0.731928 5.58127 0.705811 5.33593 0.705811C3.07951 0.705811 1.30751 2.84115 1.91191 5.21965C2.31932 6.82093 3.79405 7.88455 5.43711 7.84132ZM5.59694 9.25445C5.59962 9.26796 5.59425 9.28777 5.56918 9.30218C4.9621 9.60388 2.61883 10.9161 2.91342 13.6827C2.92595 13.8034 2.83104 13.9061 2.71195 13.889C2.13531 13.8061 0.651629 13.4855 0.191392 12.4867C-0.0637974 11.9581 -0.0637974 11.3457 0.191392 10.817C0.492248 10.1731 1.21752 9.72997 2.32156 9.51202C2.84358 9.38504 4.25294 9.20492 5.5656 9.22923C5.5853 9.23193 5.59515 9.24634 5.59694 9.25445Z" fill="#268AFF"/>
</svg>
