<svg width="20" height="18" viewBox="0 0 20 18" fill="none" xmlns="http://www.w3.org/2000/svg">
<path fill-rule="evenodd" clip-rule="evenodd" d="M14.939 0C16.28 0 17.57 0.53 18.519 1.481C19.469 2.43 20 3.71 20 5.05V12.95C20 15.74 17.73 18 14.939 18H5.06C2.269 18 0 15.74 0 12.95V5.05C0 2.26 2.259 0 5.06 0H14.939ZM16.53 6.53999L16.61 6.45999C16.849 6.16999 16.849 5.74999 16.599 5.45999C16.46 5.31099 16.269 5.21999 16.07 5.19999C15.86 5.18899 15.66 5.25999 15.509 5.39999L11 8.99999C10.42 9.48099 9.589 9.48099 9 8.99999L4.5 5.39999C4.189 5.16999 3.759 5.19999 3.5 5.46999C3.23 5.73999 3.2 6.16999 3.429 6.46999L3.56 6.59999L8.11 10.15C8.67 10.59 9.349 10.83 10.06 10.83C10.769 10.83 11.46 10.59 12.019 10.15L16.53 6.53999Z" fill="#268AFF"/>
</svg>
