<svg width="19" height="21" viewBox="0 0 19 21" fill="none" xmlns="http://www.w3.org/2000/svg">
<path fill-rule="evenodd" clip-rule="evenodd" d="M5.0505 0H13.8505C17.094 0 18.9 1.869 18.9 5.0715V15.918C18.9 19.173 17.094 21 13.8505 21H5.0505C1.8585 21 0 19.173 0 15.918V5.0715C0 1.869 1.8585 0 5.0505 0ZM5.33363 4.89307V4.88257H8.47208C8.92463 4.88257 9.29213 5.25007 9.29213 5.70052C9.29213 6.16357 8.92463 6.53107 8.47208 6.53107H5.33363C4.88108 6.53107 4.51463 6.16357 4.51463 5.71207C4.51463 5.26057 4.88108 4.89307 5.33363 4.89307ZM5.33363 11.2771H13.5656C14.0171 11.2771 14.3846 10.9096 14.3846 10.4581C14.3846 10.0066 14.0171 9.63809 13.5656 9.63809H5.33363C4.88108 9.63809 4.51463 10.0066 4.51463 10.4581C4.51463 10.9096 4.88108 11.2771 5.33363 11.2771ZM5.33372 16.0755H13.5657C13.9847 16.0335 14.3007 15.6755 14.3007 15.2565C14.3007 14.826 13.9847 14.469 13.5657 14.427H5.33372C5.01872 14.3955 4.71422 14.5425 4.54622 14.8155C4.37822 15.078 4.37822 15.4245 4.54622 15.6975C4.71422 15.96 5.01872 16.1175 5.33372 16.0755Z" fill="#F1655C"/>
</svg>
