<svg width="23" height="26" viewBox="0 0 23 26" fill="none" xmlns="http://www.w3.org/2000/svg">
<path fill-rule="evenodd" clip-rule="evenodd" d="M6.14611 0H16.8552C20.8022 0 23 2.27444 23 6.17167V19.3711C23 23.3322 20.8022 25.5556 16.8552 25.5556H6.14611C2.26167 25.5556 0 23.3322 0 19.3711V6.17167C0 2.27444 2.26167 0 6.14611 0ZM6.49068 5.95482V5.94205H10.31C10.8607 5.94205 11.3079 6.38927 11.3079 6.93744C11.3079 7.50094 10.8607 7.94816 10.31 7.94816H6.49068C5.93996 7.94816 5.49402 7.50094 5.49402 6.95149C5.49402 6.40205 5.93996 5.95482 6.49068 5.95482ZM6.49068 13.7236H16.5085C17.0579 13.7236 17.5051 13.2764 17.5051 12.727C17.5051 12.1775 17.0579 11.729 16.5085 11.729H6.49068C5.93996 11.729 5.49402 12.1775 5.49402 12.727C5.49402 13.2764 5.93996 13.7236 6.49068 13.7236ZM6.49078 19.5628H16.5086C17.0184 19.5117 17.403 19.076 17.403 18.5662C17.403 18.0423 17.0184 17.6078 16.5086 17.5567H6.49078C6.10745 17.5184 5.73689 17.6973 5.53245 18.0295C5.328 18.349 5.328 18.7706 5.53245 19.1028C5.73689 19.4223 6.10745 19.614 6.49078 19.5628Z" fill="#0A7BE6"/>
</svg>
