<svg width="179" height="53" viewBox="0 0 179 53" fill="none" xmlns="http://www.w3.org/2000/svg">
<path d="M172.249 52.9995H6.62494C2.98122 52.9995 0 50.0183 0 46.3746V6.6249C0 2.98118 2.98122 -4.56691e-05 6.62494 -4.56691e-05H172.249C175.892 -4.56691e-05 178.873 2.98118 178.873 6.6249V46.3746C178.873 50.0183 175.892 52.9995 172.249 52.9995Z" fill="black"/>
<path d="M172.249 -4.56691e-05H6.62494C2.98122 -4.56691e-05 0 2.98118 0 6.6249V46.3746C0 50.0183 2.98122 52.9995 6.62494 52.9995H172.249C175.892 52.9995 178.873 50.0183 178.873 46.3746V6.6249C178.873 2.98118 175.892 -4.56691e-05 172.249 -4.56691e-05ZM172.249 1.05995C175.317 1.05995 177.813 3.55675 177.813 6.6249V46.3746C177.813 49.4432 175.317 51.9401 172.249 51.9401H6.62494C3.5568 51.9401 1.05999 49.4432 1.05999 46.3746V6.6249C1.05999 3.55675 3.5568 1.05995 6.62494 1.05995H172.249Z" fill="#A6A6A6"/>
<path d="M62.8289 13.5723C62.8289 14.6824 62.5002 15.5664 61.8418 16.2259C61.094 17.01 60.1193 17.4023 58.9211 17.4023C57.7737 17.4023 56.7981 17.0048 55.9958 16.2088C55.1921 15.4133 54.791 14.4268 54.791 13.2498C54.791 12.0723 55.1921 11.0864 55.9958 10.2903C56.7981 9.49481 57.7737 9.09679 58.9211 9.09679C59.4905 9.09679 60.0356 9.20808 60.5531 9.43015C61.0707 9.65275 61.4858 9.94822 61.7964 10.3183L61.0976 11.0175C60.5713 10.3887 59.8466 10.0745 58.9211 10.0745C58.0843 10.0745 57.3607 10.3685 56.75 10.9569C56.1392 11.546 55.8339 12.3099 55.8339 13.2498C55.8339 14.1898 56.1392 14.9536 56.75 15.5427C57.3607 16.1311 58.0843 16.4252 58.9211 16.4252C59.8089 16.4252 60.549 16.1296 61.1415 15.5376C61.5262 15.1519 61.7487 14.6158 61.8081 13.9273H58.9211V12.9724H62.7735C62.8108 13.18 62.8289 13.3793 62.8289 13.5723Z" fill="white"/>
<path d="M62.8286 13.5722H62.6961C62.6951 14.6569 62.3782 15.4995 61.7478 16.132L61.7464 16.1331L61.7458 16.1342C61.0217 16.8913 60.091 17.2681 58.9208 17.2697C57.804 17.2681 56.8692 16.8871 56.0887 16.1149C55.3098 15.3411 54.9247 14.3966 54.9232 13.2497C54.9247 12.1022 55.3098 11.1582 56.0887 10.3849C56.8692 9.61216 57.804 9.23069 58.9208 9.2291C59.4731 9.2291 59.999 9.33682 60.5005 9.5516C61.0025 9.76798 61.3991 10.0515 61.6946 10.4036L61.796 10.3181L61.7024 10.2244L61.0036 10.9242L61.0972 11.0173L61.1993 10.9325C60.6485 10.2725 59.8753 9.93983 58.9208 9.94182C58.053 9.94076 57.2895 10.2508 56.658 10.8616C56.0204 11.4744 55.7 12.2812 55.7011 13.2497C55.7 14.2181 56.0204 15.0249 56.658 15.6377C57.2895 16.2485 58.053 16.5585 58.9208 16.5575C59.838 16.5591 60.6196 16.248 61.2349 15.6311C61.6459 15.219 61.8789 14.6482 61.9399 13.9385L61.9523 13.7946H59.0533V13.1047H62.7732V12.9722L62.6427 12.9955C62.679 13.1964 62.6961 13.3873 62.6961 13.5722H62.8286H62.9611C62.9611 13.3708 62.9424 13.1638 62.9036 12.9485L62.884 12.8397H58.7883V13.9271V14.0596H61.8078V13.9271L61.6759 13.9157C61.6174 14.5825 61.4052 15.0845 61.0476 15.4437C60.4782 16.0109 59.7795 16.2909 58.9208 16.2925C58.115 16.2914 57.4313 16.014 56.8418 15.4473C56.258 14.8826 55.9676 14.1616 55.9661 13.2497C55.9676 12.3377 56.258 11.6167 56.8418 11.052C57.4313 10.4853 58.115 10.2079 58.9208 10.2068C59.8168 10.2089 60.4933 10.5049 60.9959 11.1028L61.089 11.2135L61.8897 10.4118L61.9756 10.3259L61.8974 10.2332C61.5719 9.84509 61.1382 9.53703 60.605 9.30834C60.0709 9.07898 59.5073 8.96411 58.9208 8.96411C57.7429 8.96305 56.7264 9.3771 55.9018 10.1965C55.0742 11.0143 54.6571 12.0422 54.6582 13.2497C54.6571 14.4566 55.0742 15.485 55.9024 16.3034C56.7264 17.1222 57.7429 17.5357 58.9208 17.5347C60.1475 17.5357 61.1651 17.1283 61.9373 16.3173L61.8415 16.2257L61.9352 16.3194C62.6215 15.6336 62.962 14.7071 62.9611 13.5722H62.8286Z" fill="white"/>
<path d="M68.9359 10.2513H65.3156V12.772H68.5805V13.7273H65.3156V16.248H68.9359V17.2246H64.2949V9.27468H68.9359V10.2513Z" fill="white"/>
<path d="M68.9357 10.2516V10.1191H65.1828V12.9048H68.4477V13.5947L65.1828 13.5951V16.3808H68.8032V17.0924H64.4271V9.40749H68.8032V10.2516H68.9357V10.1191V10.2516H69.0682V9.27499V9.14249H64.1621V17.3574H69.0682V16.2483V16.1158H65.4477V13.8601H68.7127V12.7723V12.6398H65.4477V10.3841H69.0682V10.2516H68.9357Z" fill="white"/>
<path d="M73.2436 17.2246H72.2214V10.2513H70.001V9.27468H75.464V10.2513H73.2436V17.2246Z" fill="white"/>
<path d="M73.2433 17.2249V17.0924H72.3536V10.1191H70.1332V9.40749H75.3312V10.1191H73.1108V17.2249H73.2433V17.0924V17.2249H73.3758V10.3841H75.5962V9.27499V9.14249H69.8682V10.2516V10.3841H72.0886V17.3574H73.2433H73.3758V17.2249H73.2433Z" fill="white"/>
<path d="M79.417 17.2246V9.27468H80.4381V17.2246H79.417Z" fill="white"/>
<path d="M79.4167 17.2249H79.5492V9.40749H80.3053V17.0924H79.4167V17.2249H79.5492H79.4167V17.3574H80.4378H80.5703V9.14249H79.4167H79.2842V17.3574H79.4167V17.2249Z" fill="white"/>
<path d="M84.9691 17.2246H83.9468V10.2513H81.7266V9.27468H87.1895V10.2513H84.9691V17.2246Z" fill="white"/>
<path d="M84.9697 17.2249V17.0924H84.08V10.1191H81.8597V9.40749H87.0577V10.1191H84.8372V17.2249H84.9697V17.0924V17.2249H85.1022V10.3841H87.3227V9.27499V9.14249H81.5947V10.2516V10.3841H83.815V17.3574H84.9697H85.1022V17.2249H84.9697Z" fill="white"/>
<path d="M92.4566 15.5319C93.045 16.1276 93.765 16.4252 94.6165 16.4252C95.4679 16.4252 96.1883 16.1276 96.7758 15.5319C97.3647 14.9361 97.6598 14.1747 97.6598 13.2498C97.6598 12.325 97.3647 11.5635 96.7758 10.9678C96.1883 10.3721 95.4679 10.0745 94.6165 10.0745C93.765 10.0745 93.045 10.3721 92.4566 10.9678C91.8691 11.5635 91.5741 12.325 91.5741 13.2498C91.5741 14.1747 91.8691 14.9361 92.4566 15.5319ZM97.5314 16.1974C96.7498 17.0011 95.7778 17.4023 94.6165 17.4023C93.4539 17.4023 92.4824 17.0011 91.7025 16.1974C90.9204 15.3946 90.5312 14.4118 90.5312 13.2498C90.5312 12.0878 90.9204 11.1049 91.7025 10.3023C92.4824 9.49839 93.4539 9.09679 94.6165 9.09679C95.7717 9.09679 96.7411 9.50051 97.5263 10.3074C98.3104 11.1143 98.7027 12.0951 98.7027 13.2498C98.7027 14.4118 98.3113 15.3946 97.5314 16.1974Z" fill="white"/>
<path d="M92.4563 15.5317L92.3621 15.6248C92.9724 16.2444 93.7337 16.5591 94.6161 16.5575C95.4981 16.5591 96.2605 16.2444 96.8697 15.6248C97.4839 15.0047 97.7929 14.2025 97.792 13.2497C97.7929 12.2969 97.4839 11.4946 96.8697 10.8745C96.2605 10.2549 95.4981 9.94023 94.6161 9.94182C93.7337 9.94023 92.9724 10.2549 92.3621 10.8745C91.7493 11.4946 91.4397 12.2969 91.4413 13.2497C91.4397 14.2025 91.7493 15.0047 92.3621 15.6248L92.4563 15.5317L92.5505 15.4385C91.9884 14.8665 91.7074 14.1471 91.7063 13.2497C91.7074 12.3522 91.9884 11.6328 92.5505 11.0608C93.1177 10.4889 93.7952 10.2084 94.6161 10.2068C95.4364 10.2084 96.1155 10.4889 96.6813 11.0608C97.2444 11.6328 97.5254 12.3522 97.5265 13.2497C97.5254 14.1471 97.2444 14.8665 96.6813 15.4385C96.1155 16.0104 95.4364 16.2909 94.6161 16.2925C93.7952 16.2909 93.1177 16.0104 92.5505 15.4385L92.4563 15.5317ZM97.5311 16.1972L97.4364 16.1051C96.6766 16.8836 95.7475 17.2681 94.6161 17.2697C93.4842 17.2681 92.5551 16.8836 91.7968 16.1051L91.7933 16.101L91.7968 16.1051C91.0387 15.3241 90.6645 14.3821 90.6634 13.2497C90.6645 12.1172 91.0387 11.1753 91.7968 10.3942C92.5551 9.61574 93.4842 9.2307 94.6161 9.22911C95.7403 9.2307 96.6672 9.61733 97.4312 10.3999C98.192 11.1845 98.5683 12.125 98.5699 13.2497C98.5683 14.3821 98.1931 15.3241 97.4364 16.1051L97.5311 16.1972L97.6264 16.2893C98.4296 15.4644 98.8358 14.4411 98.8349 13.2497C98.8358 12.065 98.428 11.0438 97.6211 10.2152C96.8138 9.38333 95.8024 8.96265 94.6161 8.96411C93.4237 8.96265 92.4092 9.38135 91.607 10.21V10.2095C90.8022 11.0349 90.3974 12.0582 90.3984 13.2497C90.3974 14.4411 90.8022 15.4644 91.607 16.2898L91.6105 16.2935L91.607 16.2893C92.4092 17.118 93.4237 17.5357 94.6161 17.5347C95.8081 17.5357 96.8225 17.118 97.6264 16.2893L97.5311 16.1972Z" fill="white"/>
<path d="M100.137 17.2246V9.27468H101.38L105.244 15.4592H105.288L105.244 13.9271V9.27468H106.266V17.2246H105.2L101.157 10.7404H101.113L101.157 12.273V17.2246H100.137Z" fill="white"/>
<path d="M100.136 17.2249H100.269V9.40749H101.306L105.17 15.592H105.287H105.423L105.376 13.9254V9.40749H106.133V17.0924H105.273L101.231 10.6082H101.113H100.977L101.025 12.2754V17.0924H100.136V17.2249H100.269H100.136V17.3574H101.157H101.29V12.2712L101.246 10.7371L101.113 10.7407V10.8732H101.157V10.7407L101.045 10.8112L105.126 17.3574H106.266H106.398V9.14249H105.243H105.111V13.929L105.155 15.4631L105.287 15.4595V15.327H105.243V15.4595L105.356 15.3891L101.453 9.14249H100.136H100.004V17.3574H100.136V17.2249Z" fill="white"/>
<path d="M141.689 39.7495H144.161V23.1855H141.689V39.7495ZM163.958 29.1522L161.124 36.3335H161.039L158.098 29.1522H155.434L159.845 39.1894L157.33 44.7725H159.91L166.707 29.1522H163.958ZM149.937 37.8681C149.126 37.8681 147.997 37.4633 147.997 36.4614C147.997 35.1829 149.404 34.6928 150.618 34.6928C151.706 34.6928 152.216 34.9272 152.877 35.2472C152.685 36.7812 151.364 37.8681 149.937 37.8681ZM150.235 28.7898C148.445 28.7898 146.591 29.5786 145.824 31.326L148.018 32.2421C148.487 31.326 149.361 31.0273 150.278 31.0273C151.556 31.0273 152.856 31.7949 152.877 33.1587V33.329C152.429 33.0732 151.471 32.6898 150.299 32.6898C147.934 32.6898 145.525 33.9893 145.525 36.4188C145.525 38.6352 147.465 40.0631 149.638 40.0631C151.3 40.0631 152.216 39.3173 152.792 38.4437H152.877V39.722H155.263V33.3714C155.263 30.4311 153.069 28.7898 150.235 28.7898ZM134.955 31.1686H131.439V25.4909H134.955C136.804 25.4909 137.853 27.0212 137.853 28.3297C137.853 29.6133 136.804 31.1686 134.955 31.1686ZM134.892 23.1855H128.968V39.7495H131.439V33.4739H134.892C137.632 33.4739 140.326 31.49 140.326 28.3297C140.326 25.1694 137.632 23.1855 134.892 23.1855ZM102.587 37.8712C100.879 37.8712 99.4491 36.4411 99.4491 34.4769C99.4491 32.4921 100.879 31.0403 102.587 31.0403C104.274 31.0403 105.597 32.4921 105.597 34.4769C105.597 36.4411 104.274 37.8712 102.587 37.8712ZM105.426 30.0797H105.341C104.786 29.4181 103.718 28.8204 102.374 28.8204C99.5558 28.8204 96.9731 31.2964 96.9731 34.4769C96.9731 37.6362 99.5558 40.0911 102.374 40.0911C103.718 40.0911 104.786 39.4932 105.341 38.8106H105.426V39.6216C105.426 41.7779 104.274 42.9305 102.416 42.9305C100.901 42.9305 99.9616 41.8415 99.577 40.9238L97.4214 41.8203C98.0404 43.3145 99.6842 45.1504 102.416 45.1504C105.319 45.1504 107.774 43.4423 107.774 39.28V29.162H105.426V30.0797ZM109.482 39.7495H111.958V23.185H109.482V39.7495ZM115.608 34.285C115.544 32.1075 117.295 30.9978 118.554 30.9978C119.536 30.9978 120.369 31.4884 120.645 32.1935L115.608 34.285ZM123.293 32.4066C122.824 31.1468 121.393 28.8204 118.468 28.8204C115.565 28.8204 113.153 31.1044 113.153 34.4557C113.153 37.615 115.544 40.0911 118.746 40.0911C121.329 40.0911 122.824 38.5114 123.443 37.5937L121.521 36.3127C120.881 37.2521 120.006 37.8712 118.746 37.8712C117.487 37.8712 116.59 37.2947 116.014 36.1637L123.549 33.0469L123.293 32.4066ZM63.26 30.5495V32.9402H68.9806C68.8098 34.285 68.3616 35.2668 67.6784 35.9499C66.8462 36.7827 65.544 37.7004 63.26 37.7004C59.7377 37.7004 56.9843 34.8615 56.9843 31.3394C56.9843 27.8173 59.7377 24.978 63.26 24.978C65.1599 24.978 66.547 25.7253 67.5717 26.6859L69.258 24.9997C67.828 23.6332 65.928 22.5873 63.26 22.5873C58.4355 22.5873 54.3799 26.5151 54.3799 31.3394C54.3799 36.1637 58.4355 40.0911 63.26 40.0911C65.8644 40.0911 67.828 39.2376 69.3647 37.6362C70.9444 36.0566 71.4355 33.8367 71.4355 32.0439C71.4355 31.4884 71.393 30.9766 71.3071 30.5495H63.26ZM77.9394 37.8712C76.2313 37.8712 74.7583 36.4623 74.7583 34.4557C74.7583 32.4278 76.2313 31.0403 77.9394 31.0403C79.6468 31.0403 81.1197 32.4278 81.1197 34.4557C81.1197 36.4623 79.6468 37.8712 77.9394 37.8712ZM77.9394 28.8204C74.8225 28.8204 72.2822 31.1898 72.2822 34.4557C72.2822 37.7004 74.8225 40.0911 77.9394 40.0911C81.0556 40.0911 83.5959 37.7004 83.5959 34.4557C83.5959 31.1898 81.0556 28.8204 77.9394 28.8204ZM90.2793 37.8712C88.5719 37.8712 87.0988 36.4623 87.0988 34.4557C87.0988 32.4278 88.5719 31.0403 90.2793 31.0403C91.9868 31.0403 93.4598 32.4278 93.4598 34.4557C93.4598 36.4623 91.9868 37.8712 90.2793 37.8712ZM90.2793 28.8204C87.1625 28.8204 84.6228 31.1898 84.6228 34.4557C84.6228 37.7004 87.1625 40.0911 90.2793 40.0911C93.3956 40.0911 95.9359 37.7004 95.9359 34.4557C95.9359 31.1898 93.3956 28.8204 90.2793 28.8204Z" fill="white"/>
<path d="M13.9255 42.9155L13.8271 42.8213C13.4415 42.4134 13.2139 41.7799 13.2139 40.9596V41.1526V11.8492C13.2139 11.8465 13.2139 11.8445 13.2139 11.8424C13.2139 11.8449 13.2139 11.847 13.2139 11.8497V12.0433C13.2139 11.155 13.4793 10.4859 13.9239 10.0847L30.3403 26.5006L13.9255 42.9155ZM13.2139 11.8408C13.2139 11.7678 13.2159 11.6969 13.2196 11.6271C13.2159 11.6964 13.2139 11.7678 13.2139 11.8408ZM13.2196 11.6239C13.2196 11.623 13.2196 11.6219 13.22 11.6209C13.2196 11.6219 13.2196 11.623 13.2196 11.6239ZM13.22 11.6146C13.22 11.6141 13.22 11.6136 13.22 11.6131C13.22 11.6136 13.22 11.6141 13.22 11.6146Z" fill="url(#paint0_linear_2039_3679)"/>
<path d="M35.8111 32.168L35.9359 32.0971L42.419 28.4135C43.0371 28.0621 43.449 27.6361 43.6545 27.1853C43.4495 27.6361 43.0375 28.0626 42.419 28.414L35.9359 32.0976L35.8111 32.168ZM35.8127 31.9739L30.3398 26.5001L35.8122 21.0272L42.419 24.7806C43.258 25.2574 43.729 25.8718 43.8077 26.4995C43.8077 26.5001 43.8077 26.5011 43.8077 26.5021C43.729 27.1284 43.258 27.7433 42.419 28.2199L35.8127 31.9739Z" fill="url(#paint1_linear_2039_3679)"/>
<path d="M15.0963 43.541C14.6377 43.541 14.2375 43.392 13.9255 43.1104L13.926 43.1099C14.2381 43.3914 14.6387 43.541 15.0973 43.541C15.1371 43.541 15.1775 43.54 15.2184 43.538C15.177 43.54 15.136 43.541 15.0963 43.541ZM15.0968 43.3469C14.6382 43.3474 14.2381 43.1978 13.926 42.9163V42.9159L30.3408 26.501L35.8137 31.9748L16.5812 42.9024C16.0491 43.2041 15.5449 43.3469 15.0968 43.3469ZM13.9214 43.1068C13.8924 43.0804 13.8639 43.0525 13.8359 43.0235L13.9214 43.1068Z" fill="url(#paint2_linear_2039_3679)"/>
<path d="M30.3402 26.5005L13.9238 10.0845C14.2359 9.80351 14.6355 9.65445 15.0935 9.65445C15.5428 9.65445 16.0474 9.79781 16.5806 10.1L35.8125 21.0276L30.3402 26.5005ZM35.9363 20.904L16.5806 9.90659C16.0474 9.60423 15.5428 9.46087 15.0935 9.46087C15.0914 9.46087 15.09 9.46087 15.0878 9.46087C15.0905 9.46087 15.0925 9.46087 15.0956 9.46087C15.5439 9.46087 16.0479 9.6037 16.5806 9.90606L35.9363 20.904Z" fill="url(#paint3_linear_2039_3679)"/>
<path d="M15.218 43.5376C15.6346 43.5137 16.0958 43.3704 16.5807 43.0956L35.8116 32.1685L16.5807 43.0956C16.0962 43.3709 15.6346 43.5137 15.218 43.5376ZM13.9251 43.11L13.921 43.1064C13.9224 43.1075 13.924 43.109 13.9251 43.11ZM13.8355 43.0231L13.8271 43.0149V43.0144C13.8303 43.0174 13.8328 43.0205 13.8355 43.0231Z" fill="black"/>
<path d="M35.8115 32.168L35.9363 32.0971L35.8115 32.168Z" fill="url(#paint4_linear_2039_3679)"/>
<path d="M15.0959 43.541C14.6373 43.541 14.2367 43.3914 13.9246 43.1099L13.9241 43.1104C13.923 43.1093 13.9214 43.1079 13.92 43.1068L13.8345 43.0235C13.8319 43.0208 13.8294 43.0178 13.8262 43.0147L13.9246 42.9163C14.2367 43.1978 14.6368 43.3474 15.0954 43.3469C15.5435 43.3469 16.0476 43.2041 16.5798 42.9024L35.8122 31.9748L35.9355 32.098L35.8107 32.1689L16.5798 43.096C16.0948 43.3708 15.6336 43.5141 15.217 43.538C15.1761 43.54 15.1357 43.541 15.0959 43.541Z" fill="url(#paint5_linear_2039_3679)"/>
<path d="M13.8271 43.0151C13.4415 42.6072 13.2139 41.9737 13.2139 41.1534V41.1529C13.2139 41.9737 13.4415 42.6066 13.8271 43.0146V43.0151Z" fill="black"/>
<path d="M13.8271 43.0146C13.4415 42.6067 13.2139 41.9737 13.2139 41.1529V40.9599C13.2139 41.7802 13.4415 42.4136 13.8271 42.8216L13.9255 42.9158L13.8271 43.0146Z" fill="url(#paint6_linear_2039_3679)"/>
<path d="M13.8262 43.0146L13.9246 42.9158V42.9162L13.8262 43.0146Z" fill="url(#paint7_linear_2039_3679)"/>
<path d="M43.6543 27.186C43.7562 26.9624 43.8075 26.7326 43.8075 26.5027C43.8075 26.5023 43.8075 26.5018 43.8075 26.5018C43.8075 26.7321 43.7562 26.9618 43.6543 27.186Z" fill="black"/>
<path d="M35.9357 32.0977L35.8125 31.9744L42.4188 28.2205C43.2577 27.7439 43.7288 27.1289 43.8075 26.5026C43.8075 26.7325 43.7562 26.9623 43.6543 27.1859C43.4488 27.6367 43.0369 28.0627 42.4188 28.4141L35.9357 32.0977Z" fill="url(#paint8_linear_2039_3679)"/>
<path d="M43.8078 26.501V26.5004C43.8073 25.8073 43.3441 25.1144 42.4191 24.5885L35.9361 20.9049H35.9355L35.9361 20.9045L42.4191 24.588C43.3451 25.1138 43.8089 25.8079 43.8078 26.501Z" fill="#404040"/>
<path d="M43.808 26.501C43.7293 25.8732 43.2583 25.2588 42.4193 24.7821L35.8125 21.0286L35.9357 20.9054H35.9363L42.4193 24.589C43.3443 25.1149 43.8075 25.8079 43.808 26.501Z" fill="url(#paint9_linear_2039_3679)"/>
<path d="M13.2139 11.8428C13.2139 11.8422 13.2139 11.8417 13.2139 11.8412C13.2139 11.8417 13.2139 11.8422 13.2139 11.8428ZM13.2196 11.6275C13.2196 11.6264 13.2196 11.6253 13.2196 11.6243C13.2196 11.6253 13.2196 11.6264 13.2196 11.6275ZM13.22 11.6212C13.22 11.6191 13.22 11.6171 13.22 11.615C13.22 11.6171 13.22 11.6191 13.22 11.6212ZM13.22 11.6134C13.2967 10.2523 14.0368 9.46601 15.0838 9.46137C14.6299 9.46402 14.2345 9.61308 13.925 9.89199V9.89146L13.9213 9.89517C13.8887 9.92458 13.8577 9.95572 13.8271 9.98779C13.4793 10.3557 13.2598 10.9069 13.22 11.6134Z" fill="#404040"/>
<path d="M13.2139 12.0435V11.8499C13.2139 11.8472 13.2139 11.8451 13.2139 11.8426C13.2139 11.8421 13.2139 11.8415 13.2139 11.841C13.2139 11.768 13.2159 11.6966 13.2196 11.6273C13.2196 11.6262 13.2196 11.6252 13.2196 11.6241C13.2196 11.6232 13.2196 11.6221 13.22 11.6211C13.22 11.6189 13.22 11.6169 13.22 11.6148C13.22 11.6143 13.22 11.6138 13.22 11.6132C13.2598 10.9068 13.4793 10.3556 13.8271 9.9876L13.9239 10.0849C13.4793 10.4861 13.2139 11.1552 13.2139 12.0435ZM13.9213 9.89499L13.925 9.89128C13.9239 9.89287 13.9223 9.89393 13.9213 9.89499Z" fill="url(#paint10_linear_2039_3679)"/>
<path d="M35.8117 21.0278L16.5798 10.1002C16.0466 9.79802 15.542 9.65466 15.0927 9.65466C14.6347 9.65466 14.2351 9.80372 13.923 10.0847L13.8262 9.98749C13.8568 9.95543 13.8878 9.92429 13.9204 9.89487C13.9214 9.89381 13.923 9.89276 13.9241 9.8917C14.2336 9.61279 14.629 9.46372 15.0829 9.46107C15.084 9.46107 15.0854 9.46107 15.087 9.46107C15.0892 9.46107 15.0906 9.46107 15.0927 9.46107C15.542 9.46107 16.0466 9.60444 16.5798 9.9068L35.9355 20.9042L35.9349 20.9046L35.8117 21.0278Z" fill="url(#paint11_linear_2039_3679)"/>
<defs>
<linearGradient id="paint0_linear_2039_3679" x1="28.8846" y1="11.5401" x2="6.64802" y2="33.7767" gradientUnits="userSpaceOnUse">
<stop stop-color="#00A0FF"/>
<stop offset="0.00657445" stop-color="#00A1FF"/>
<stop offset="0.2601" stop-color="#00BEFF"/>
<stop offset="0.5122" stop-color="#00D2FF"/>
<stop offset="0.7604" stop-color="#00DFFF"/>
<stop offset="1" stop-color="#00E3FF"/>
</linearGradient>
<linearGradient id="paint1_linear_2039_3679" x1="44.8299" y1="26.5009" x2="12.7692" y2="26.5009" gradientUnits="userSpaceOnUse">
<stop stop-color="#FFE000"/>
<stop offset="0.4087" stop-color="#FFBD00"/>
<stop offset="0.7754" stop-color="#FFA500"/>
<stop offset="1" stop-color="#FF9C00"/>
</linearGradient>
<linearGradient id="paint2_linear_2039_3679" x1="32.8962" y1="29.5422" x2="2.74166" y2="59.6967" gradientUnits="userSpaceOnUse">
<stop stop-color="#FF3A44"/>
<stop offset="1" stop-color="#C31162"/>
</linearGradient>
<linearGradient id="paint3_linear_2039_3679" x1="9.66889" y1="0.233114" x2="23.1341" y2="13.6983" gradientUnits="userSpaceOnUse">
<stop stop-color="#32A071"/>
<stop offset="0.0685" stop-color="#2DA771"/>
<stop offset="0.4762" stop-color="#15CF74"/>
<stop offset="0.8009" stop-color="#06E775"/>
<stop offset="1" stop-color="#00F076"/>
</linearGradient>
<linearGradient id="paint4_linear_2039_3679" x1="44.83" y1="26.5007" x2="12.7705" y2="26.5007" gradientUnits="userSpaceOnUse">
<stop stop-color="#CCB300"/>
<stop offset="0.4087" stop-color="#CC9700"/>
<stop offset="0.7754" stop-color="#CC8400"/>
<stop offset="1" stop-color="#CC7D00"/>
</linearGradient>
<linearGradient id="paint5_linear_2039_3679" x1="32.8948" y1="29.5422" x2="2.74025" y2="59.6967" gradientUnits="userSpaceOnUse">
<stop stop-color="#CC2E36"/>
<stop offset="1" stop-color="#9C0E4E"/>
</linearGradient>
<linearGradient id="paint6_linear_2039_3679" x1="28.8846" y1="11.5403" x2="6.64801" y2="33.7769" gradientUnits="userSpaceOnUse">
<stop stop-color="#008DE0"/>
<stop offset="0.00657445" stop-color="#008DE0"/>
<stop offset="0.2601" stop-color="#00A7E0"/>
<stop offset="0.5122" stop-color="#00B8E0"/>
<stop offset="0.7604" stop-color="#00C4E0"/>
<stop offset="1" stop-color="#00C7E0"/>
</linearGradient>
<linearGradient id="paint7_linear_2039_3679" x1="32.8949" y1="29.5428" x2="2.7419" y2="59.6976" gradientUnits="userSpaceOnUse">
<stop stop-color="#E0333C"/>
<stop offset="1" stop-color="#AB0F56"/>
</linearGradient>
<linearGradient id="paint8_linear_2039_3679" x1="44.8297" y1="26.5014" x2="12.769" y2="26.5014" gradientUnits="userSpaceOnUse">
<stop stop-color="#E0C500"/>
<stop offset="0.4087" stop-color="#E0A600"/>
<stop offset="0.7754" stop-color="#E09100"/>
<stop offset="1" stop-color="#E08900"/>
</linearGradient>
<linearGradient id="paint9_linear_2039_3679" x1="44.8302" y1="26.5023" x2="12.7695" y2="26.5023" gradientUnits="userSpaceOnUse">
<stop stop-color="#FFE840"/>
<stop offset="0.4087" stop-color="#FFCE40"/>
<stop offset="0.7754" stop-color="#FFBC40"/>
<stop offset="1" stop-color="#FFB540"/>
</linearGradient>
<linearGradient id="paint10_linear_2039_3679" x1="28.8846" y1="11.5402" x2="6.648" y2="33.7768" gradientUnits="userSpaceOnUse">
<stop stop-color="#40B8FF"/>
<stop offset="0.00657445" stop-color="#40B9FF"/>
<stop offset="0.2601" stop-color="#40CEFF"/>
<stop offset="0.5122" stop-color="#40DDFF"/>
<stop offset="0.7604" stop-color="#40E7FF"/>
<stop offset="1" stop-color="#40EAFF"/>
</linearGradient>
<linearGradient id="paint11_linear_2039_3679" x1="9.66809" y1="0.23332" x2="23.1333" y2="13.6985" gradientUnits="userSpaceOnUse">
<stop stop-color="#65B895"/>
<stop offset="0.0685" stop-color="#62BD95"/>
<stop offset="0.4762" stop-color="#50DB97"/>
<stop offset="0.8009" stop-color="#44ED98"/>
<stop offset="1" stop-color="#40F498"/>
</linearGradient>
</defs>
</svg>
