<svg width="159" height="53" viewBox="0 0 159 53" fill="none" xmlns="http://www.w3.org/2000/svg">
<path d="M145.927 0.000172249H12.6333C12.1475 0.000172249 11.6674 0.000172249 11.1828 0.00282223C10.7772 0.00547221 10.3748 0.0131704 9.96524 0.0196496C9.07553 0.0301194 8.18791 0.108392 7.3101 0.253788C6.43352 0.40235 5.58439 0.68243 4.79145 1.08456C3.99948 1.49009 3.27583 2.01703 2.64676 2.64627C2.01438 3.27374 1.48725 3.99901 1.08563 4.79419C0.6829 5.5878 0.403645 6.43821 0.257512 7.31607C0.109989 8.19283 0.0306051 9.07969 0.0200736 9.9687C0.00777769 10.3749 0.0064792 10.7825 0 11.1888V41.815C0.0064792 42.2264 0.00777769 42.6249 0.0200736 43.0365C0.0306083 43.9254 0.109992 44.8123 0.257512 45.689C0.403242 46.5673 0.682513 47.4183 1.08563 48.2122C1.48707 49.0048 2.01428 49.7271 2.64676 50.3511C3.27344 50.9831 3.99756 51.5104 4.79145 51.9128C5.58439 52.316 6.43342 52.5978 7.3101 52.7486C8.18806 52.8929 9.07559 52.9712 9.96524 52.9829C10.3748 52.9919 10.7772 52.9971 11.1828 52.9971C11.6674 52.9997 12.1475 52.9997 12.6333 52.9997H145.927C146.404 52.9997 146.887 52.9997 147.364 52.9971C147.767 52.9971 148.181 52.9919 148.585 52.9829C149.473 52.9718 150.359 52.8935 151.235 52.7486C152.115 52.5967 152.967 52.3151 153.763 51.9128C154.557 51.5102 155.28 50.9829 155.906 50.3511C156.537 49.7247 157.065 49.0028 157.472 48.2122C157.872 47.4177 158.149 46.5668 158.292 45.689C158.44 44.8121 158.522 43.9255 158.538 43.0365C158.543 42.6249 158.543 42.2264 158.543 41.815C158.554 41.3336 158.554 40.8549 158.554 40.3657V12.6354C158.554 12.1502 158.554 11.6689 158.543 11.1888C158.543 10.7825 158.543 10.3749 158.538 9.96865C158.522 9.07956 158.44 8.19289 158.292 7.31602C158.148 6.43867 157.872 5.58832 157.472 4.79414C156.654 3.20028 155.357 1.90289 153.763 1.08444C152.967 0.683293 152.115 0.403287 151.235 0.253669C150.359 0.107633 149.473 0.0293323 148.585 0.0194641C148.181 0.0129981 147.767 0.00523371 147.364 0.00264998C146.887 0 146.404 0 145.927 0V0.000172249Z" fill="#A6A6A6"/>
<path d="M11.1898 51.84C10.7861 51.84 10.3922 51.8348 9.99163 51.8258C9.1619 51.815 8.33411 51.7428 7.51504 51.6097C6.7513 51.4782 6.01145 51.2335 5.31988 50.8838C4.63465 50.5369 4.00967 50.0821 3.46887 49.5368C2.92024 48.9979 2.46349 48.3728 2.1167 47.6864C1.7661 46.9956 1.52346 46.255 1.39724 45.4907C1.26093 44.6693 1.18718 43.8388 1.17662 43.0063C1.16822 42.7269 1.15723 41.7965 1.15723 41.7965V11.1885C1.15723 11.1885 1.16894 10.2724 1.17669 10.0032C1.18679 9.17203 1.26011 8.34281 1.39602 7.52274C1.52247 6.75626 1.7653 6.01361 2.11609 5.32048C2.46161 4.63455 2.91582 4.00905 3.46114 3.46821C4.00585 2.92224 4.63283 2.46509 5.31923 2.11345C6.00921 1.76482 6.74767 1.52187 7.50986 1.39274C8.33161 1.25834 9.16228 1.18567 9.99489 1.17536L11.1905 1.15918H147.358L148.568 1.17601C149.393 1.18581 150.216 1.25783 151.03 1.39144C151.8 1.52219 152.546 1.76684 153.244 2.11733C154.619 2.826 155.738 3.94717 156.444 5.32371C156.789 6.01205 157.028 6.74865 157.153 7.50851C157.29 8.33531 157.367 9.17104 157.383 10.009C157.387 10.3843 157.387 10.7873 157.387 11.1885C157.397 11.6853 157.397 12.1583 157.397 12.6351V40.3653C157.397 40.8467 157.397 41.3164 157.387 41.79C157.387 42.2209 157.387 42.6156 157.382 43.0218C157.366 43.8449 157.291 44.6657 157.155 45.4777C157.032 46.2476 156.79 46.9939 156.44 47.6904C156.091 48.3694 155.636 48.989 155.094 49.5264C154.553 50.0747 153.927 50.5322 153.24 50.8812C152.544 51.2337 151.799 51.4793 151.03 51.6097C150.211 51.7435 149.383 51.8157 148.553 51.8258C148.165 51.8348 147.759 51.84 147.364 51.84L145.928 51.8427L11.1898 51.84Z" fill="black"/>
<path d="M32.8192 26.8978C32.8334 25.7919 33.1272 24.7075 33.6731 23.7456C34.219 22.7837 34.9994 21.9756 35.9416 21.3963C35.343 20.5415 34.5534 19.838 33.6354 19.3417C32.7174 18.8455 31.6964 18.5701 30.6533 18.5374C28.4284 18.3039 26.2713 19.8688 25.1375 19.8688C23.9818 19.8688 22.2361 18.5606 20.3563 18.5993C19.1404 18.6386 17.9554 18.9922 16.9168 19.6256C15.8782 20.259 15.0213 21.1507 14.4298 22.2137C11.8672 26.6503 13.7786 33.1706 16.2333 36.7569C17.4615 38.513 18.8968 40.4745 20.7749 40.405C22.6127 40.3287 23.2991 39.233 25.5176 39.233C27.7154 39.233 28.3594 40.405 30.2756 40.3607C32.2477 40.3287 33.4902 38.5969 34.6752 36.8242C35.5576 35.5729 36.2367 34.19 36.6871 32.7266C35.5414 32.242 34.5637 31.4309 33.8758 30.3944C33.188 29.3578 32.8205 28.1418 32.8192 26.8978Z" fill="white"/>
<path d="M29.2001 16.1787C30.2754 14.8879 30.8051 13.2288 30.6768 11.5537C29.0341 11.7263 27.5166 12.5114 26.4268 13.7527C25.894 14.3591 25.4859 15.0646 25.2259 15.8288C24.9658 16.593 24.859 17.4009 24.9114 18.2065C25.7331 18.2149 26.546 18.0368 27.2888 17.6856C28.0317 17.3344 28.6852 16.8191 29.2001 16.1787Z" fill="white"/>
<path d="M56.0505 35.9596H49.7788L48.2727 40.4068H45.6162L51.5567 23.9531H54.3166L60.2571 40.4068H57.5553L56.0505 35.9596ZM50.4283 33.9074H55.3997L52.949 26.6898H52.8804L50.4283 33.9074Z" fill="white"/>
<path d="M73.0871 34.4096C73.0871 38.1374 71.0918 40.5325 68.0808 40.5325C67.3181 40.5724 66.5596 40.3967 65.892 40.0255C65.2245 39.6544 64.675 39.1027 64.3064 38.4337H64.2495V44.3755H61.7871V28.4109H64.1706V30.4062H64.2159C64.6014 29.7404 65.1602 29.1916 65.8328 28.8182C66.5054 28.4447 67.2666 28.2606 68.0356 28.2854C71.0801 28.2854 73.0871 30.6921 73.0871 34.4096ZM70.5561 34.4096C70.5561 31.9809 69.301 30.3842 67.386 30.3842C65.5046 30.3842 64.2391 32.0145 64.2391 34.4096C64.2391 36.8267 65.5046 38.4454 67.386 38.4454C69.301 38.4454 70.5561 36.8603 70.5561 34.4096Z" fill="white"/>
<path d="M86.2902 34.4096C86.2902 38.1374 84.295 40.5325 81.284 40.5325C80.5212 40.5724 79.7627 40.3967 79.0952 40.0255C78.4276 39.6543 77.8781 39.1027 77.5096 38.4337H77.4526V44.3755H74.9902V28.4109H77.3737V30.4062H77.4189C77.8045 29.7404 78.3632 29.1916 79.0358 28.8182C79.7085 28.4447 80.4697 28.2606 81.2386 28.2854C84.2833 28.2854 86.2902 30.6921 86.2902 34.4096ZM83.7593 34.4096C83.7593 31.9809 82.5041 30.3842 80.5891 30.3842C78.7077 30.3842 77.4423 32.0145 77.4423 34.4096C77.4423 36.8267 78.7077 38.4454 80.5891 38.4454C82.5042 38.4454 83.7593 36.8603 83.7593 34.4096H83.7593Z" fill="white"/>
<path d="M95.0157 35.8228C95.1982 37.4545 96.7833 38.5258 98.9493 38.5258C101.025 38.5258 102.518 37.4544 102.518 35.9832C102.518 34.7061 101.617 33.9414 99.485 33.4174L97.3526 32.9037C94.3313 32.1739 92.9286 30.7609 92.9286 28.4681C92.9286 25.6292 95.4026 23.6792 98.9157 23.6792C102.392 23.6792 104.776 25.6292 104.856 28.4681H102.37C102.222 26.826 100.864 25.8349 98.8807 25.8349C96.8971 25.8349 95.5398 26.8377 95.5398 28.2973C95.5398 29.4605 96.4067 30.145 98.5275 30.669L100.34 31.1141C103.716 31.9125 105.119 33.2685 105.119 35.6752C105.119 38.7535 102.667 40.6815 98.7668 40.6815C95.1179 40.6815 92.6543 38.7988 92.4951 35.8227L95.0157 35.8228Z" fill="white"/>
<path d="M110.433 25.5723V28.4112H112.714V30.3611H110.433V36.9744C110.433 38.0018 110.89 38.4806 111.893 38.4806C112.163 38.4758 112.434 38.4568 112.703 38.4236V40.3619C112.252 40.4461 111.794 40.4843 111.335 40.4758C108.906 40.4758 107.959 39.5635 107.959 37.237V30.3611H106.215V28.4112H107.959V25.5723H110.433Z" fill="white"/>
<path d="M114.036 34.4099C114.036 30.6355 116.259 28.2637 119.726 28.2637C123.204 28.2637 125.416 30.6354 125.416 34.4099C125.416 38.1946 123.215 40.556 119.726 40.556C116.237 40.556 114.036 38.1946 114.036 34.4099ZM122.907 34.4099C122.907 31.8207 121.721 30.2926 119.726 30.2926C117.73 30.2926 116.545 31.8323 116.545 34.4099C116.545 37.0094 117.73 38.5259 119.726 38.5259C121.721 38.5259 122.907 37.0094 122.907 34.4099H122.907Z" fill="white"/>
<path d="M127.446 28.4113H129.795V30.4531H129.852C130.011 29.8154 130.384 29.2519 130.91 28.8572C131.435 28.4625 132.081 28.2607 132.737 28.2858C133.021 28.2848 133.304 28.3156 133.581 28.3777V30.6809C133.223 30.5714 132.849 30.5211 132.475 30.5321C132.117 30.5175 131.76 30.5806 131.429 30.7169C131.098 30.8533 130.8 31.0596 130.557 31.3218C130.313 31.584 130.129 31.8959 130.017 32.2359C129.905 32.576 129.868 32.9363 129.909 33.292V40.4074H127.446L127.446 28.4113Z" fill="white"/>
<path d="M144.933 36.8839C144.602 39.0616 142.481 40.556 139.768 40.556C136.278 40.556 134.112 38.2179 134.112 34.4668C134.112 30.704 136.29 28.2637 139.665 28.2637C142.984 28.2637 145.071 30.5436 145.071 34.1808V35.0245H136.598V35.1733C136.559 35.6148 136.614 36.0595 136.76 36.478C136.906 36.8965 137.139 37.2791 137.445 37.6005C137.75 37.9219 138.12 38.1746 138.53 38.342C138.941 38.5093 139.382 38.5875 139.825 38.5711C140.407 38.6257 140.991 38.4909 141.49 38.1869C141.989 37.8829 142.377 37.4259 142.595 36.8839L144.933 36.8839ZM136.61 33.3035H142.607C142.629 32.9066 142.569 32.5093 142.43 32.1367C142.292 31.7641 142.077 31.4242 141.801 31.1383C141.525 30.8525 141.192 30.6268 140.825 30.4754C140.457 30.3241 140.062 30.2504 139.665 30.2589C139.264 30.2565 138.866 30.3336 138.495 30.4856C138.124 30.6376 137.787 30.8616 137.503 31.1447C137.219 31.4278 136.994 31.7643 136.84 32.1348C136.687 32.5053 136.609 32.9026 136.61 33.3036V33.3035Z" fill="white"/>
<path d="M50.1194 11.569C50.6356 11.532 51.1536 11.61 51.6361 11.7974C52.1185 11.9848 52.5534 12.2769 52.9092 12.6527C53.2651 13.0285 53.5331 13.4786 53.694 13.9705C53.8549 14.4625 53.9045 14.984 53.8394 15.4974C53.8394 18.0232 52.4743 19.475 50.1194 19.475H47.2637V11.569H50.1194ZM48.4916 18.3569H49.9822C50.3511 18.379 50.7203 18.3185 51.0628 18.1799C51.4054 18.0413 51.7127 17.828 51.9625 17.5557C52.2122 17.2833 52.3981 16.9587 52.5066 16.6054C52.615 16.2521 52.6434 15.8791 52.5895 15.5135C52.6395 15.1494 52.6083 14.7787 52.4981 14.428C52.388 14.0773 52.2017 13.7553 51.9525 13.4851C51.7033 13.2149 51.3974 13.0032 51.0568 12.8651C50.7162 12.727 50.3492 12.6659 49.9822 12.6863H48.4916V18.3569Z" fill="white"/>
<path d="M55.2262 16.4887C55.1887 16.0967 55.2335 15.7011 55.3579 15.3273C55.4822 14.9536 55.6833 14.61 55.9482 14.3185C56.2131 14.027 56.5361 13.7941 56.8963 13.6348C57.2565 13.4754 57.646 13.3931 58.0399 13.3931C58.4337 13.3931 58.8233 13.4754 59.1835 13.6348C59.5437 13.7941 59.8666 14.027 60.1315 14.3185C60.3964 14.61 60.5975 14.9536 60.7218 15.3273C60.8462 15.7011 60.891 16.0967 60.8535 16.4887C60.8917 16.8812 60.8474 17.2774 60.7234 17.6517C60.5994 18.0261 60.3985 18.3703 60.1335 18.6624C59.8685 18.9544 59.5453 19.1878 59.1848 19.3475C58.8242 19.5072 58.4342 19.5897 58.0399 19.5897C57.6455 19.5897 57.2555 19.5072 56.895 19.3475C56.5344 19.1878 56.2112 18.9544 55.9463 18.6624C55.6813 18.3703 55.4803 18.0261 55.3563 17.6517C55.2323 17.2774 55.188 16.8812 55.2262 16.4887ZM59.6424 16.4887C59.6424 15.1955 59.0614 14.4392 58.0418 14.4392C57.0183 14.4392 56.4425 15.1955 56.4425 16.4888C56.4425 17.7924 57.0183 18.5429 58.0418 18.5429C59.0614 18.5429 59.6424 17.7872 59.6424 16.4887H59.6424Z" fill="white"/>
<path d="M68.3342 19.4746H67.1127L65.8796 15.0804H65.7865L64.5585 19.4746H63.3487L61.7041 13.5083H62.8984L63.9672 18.061H64.0552L65.2818 13.5083H66.4114L67.6381 18.061H67.7313L68.7949 13.5083H69.9723L68.3342 19.4746Z" fill="white"/>
<path d="M71.3555 13.5087H72.489V14.4565H72.5769C72.7262 14.1161 72.978 13.8308 73.2971 13.6402C73.6163 13.4497 73.9869 13.3635 74.3574 13.3936C74.6477 13.3717 74.9392 13.4155 75.2103 13.5216C75.4814 13.6278 75.7251 13.7935 75.9234 14.0066C76.1218 14.2198 76.2696 14.4748 76.356 14.7528C76.4424 15.0308 76.4651 15.3247 76.4225 15.6127V19.475H75.245V15.9083C75.245 14.9495 74.8284 14.4727 73.9576 14.4727C73.7605 14.4635 73.5637 14.4971 73.3808 14.5711C73.1979 14.645 73.0331 14.7577 72.8978 14.9013C72.7625 15.0449 72.6598 15.2161 72.5968 15.4031C72.5339 15.5901 72.5121 15.7885 72.5329 15.9847V19.4751H71.3555L71.3555 13.5087Z" fill="white"/>
<path d="M78.2988 11.1792H79.4763V19.4746H78.2988V11.1792Z" fill="white"/>
<path d="M81.1129 16.4889C81.0754 16.0967 81.1203 15.7011 81.2447 15.3274C81.369 14.9536 81.5701 14.61 81.8351 14.3185C82.1 14.027 82.423 13.7941 82.7832 13.6348C83.1434 13.4754 83.533 13.3931 83.9269 13.3931C84.3208 13.3931 84.7103 13.4754 85.0706 13.6348C85.4308 13.7941 85.7537 14.027 86.0187 14.3185C86.2836 14.61 86.4847 14.9536 86.6091 15.3274C86.7335 15.7011 86.7783 16.0967 86.7409 16.4889C86.779 16.8814 86.7347 17.2775 86.6106 17.6519C86.4866 18.0262 86.2856 18.3704 86.0206 18.6625C85.7556 18.9545 85.4324 19.1879 85.0718 19.3476C84.7112 19.5073 84.3212 19.5898 83.9269 19.5898C83.5325 19.5898 83.1425 19.5073 82.7819 19.3476C82.4214 19.1879 82.0982 18.9545 81.8332 18.6625C81.5682 18.3704 81.3672 18.0262 81.2431 17.6519C81.1191 17.2775 81.0747 16.8814 81.1129 16.4889ZM85.5291 16.4889C85.5291 15.1956 84.9481 14.4393 83.9285 14.4393C82.905 14.4393 82.3292 15.1956 82.3292 16.4889C82.3292 17.7925 82.905 18.543 83.9285 18.543C84.9481 18.543 85.5291 17.7873 85.5291 16.4889H85.5291Z" fill="white"/>
<path d="M87.9805 17.7873C87.9805 16.7133 88.7801 16.0941 90.1996 16.0062L91.8157 15.913V15.398C91.8157 14.7679 91.399 14.412 90.5942 14.412C89.9369 14.412 89.4814 14.6534 89.3507 15.0752H88.2108C88.3311 14.0504 89.2951 13.3931 90.6486 13.3931C92.1444 13.3931 92.988 14.1377 92.988 15.398V19.4746H91.8545V18.6361H91.7613C91.5722 18.9368 91.3067 19.182 90.9919 19.3466C90.677 19.5112 90.3241 19.5893 89.9692 19.5729C89.7188 19.5989 89.4656 19.5722 89.2261 19.4944C88.9866 19.4166 88.7661 19.2895 88.5787 19.1213C88.3913 18.9531 88.2413 18.7474 88.1382 18.5177C88.0352 18.2879 87.9815 18.0391 87.9805 17.7873ZM91.8157 17.2774V16.7786L90.3587 16.8718C89.5371 16.9268 89.1644 17.2063 89.1644 17.7323C89.1644 18.2692 89.6302 18.5817 90.2708 18.5817C90.4585 18.6007 90.648 18.5818 90.8282 18.526C91.0084 18.4702 91.1756 18.3788 91.3197 18.2571C91.4639 18.1354 91.5821 17.986 91.6673 17.8177C91.7525 17.6494 91.8029 17.4657 91.8157 17.2774Z" fill="white"/>
<path d="M94.5352 16.4889C94.5352 14.6036 95.5043 13.4093 97.0117 13.4093C97.3846 13.3921 97.7547 13.4814 98.0787 13.6668C98.4027 13.8522 98.6672 14.1259 98.8414 14.4561H98.9294V11.1792H100.107V19.4746H98.9785V18.532H98.8854C98.6977 18.8599 98.424 19.1302 98.0937 19.3137C97.7635 19.4972 97.3893 19.5869 97.0118 19.5729C95.494 19.573 94.5352 18.3787 94.5352 16.4889ZM95.7515 16.4889C95.7515 17.7544 96.348 18.5158 97.3456 18.5158C98.338 18.5158 98.9514 17.7434 98.9514 16.4941C98.9514 15.2506 98.3316 14.4671 97.3456 14.4671C96.3544 14.4671 95.7515 15.2338 95.7515 16.4889H95.7515Z" fill="white"/>
<path d="M104.979 16.4887C104.942 16.0967 104.986 15.7011 105.111 15.3273C105.235 14.9536 105.436 14.61 105.701 14.3185C105.966 14.027 106.289 13.7941 106.649 13.6348C107.009 13.4754 107.399 13.3931 107.793 13.3931C108.187 13.3931 108.576 13.4754 108.936 13.6348C109.297 13.7941 109.62 14.027 109.884 14.3185C110.149 14.61 110.35 14.9536 110.475 15.3273C110.599 15.7011 110.644 16.0967 110.606 16.4887C110.645 16.8812 110.6 17.2774 110.476 17.6517C110.352 18.0261 110.151 18.3703 109.886 18.6624C109.621 18.9544 109.298 19.1878 108.938 19.3475C108.577 19.5072 108.187 19.5897 107.793 19.5897C107.398 19.5897 107.008 19.5072 106.648 19.3475C106.287 19.1878 105.964 18.9544 105.699 18.6624C105.434 18.3703 105.233 18.0261 105.109 17.6517C104.985 17.2774 104.941 16.8812 104.979 16.4887ZM109.395 16.4887C109.395 15.1955 108.814 14.4392 107.795 14.4392C106.771 14.4392 106.195 15.1955 106.195 16.4888C106.195 17.7924 106.771 18.5429 107.795 18.5429C108.814 18.5429 109.395 17.7872 109.395 16.4887Z" fill="white"/>
<path d="M112.187 13.5087H113.32V14.4565H113.408C113.557 14.1161 113.809 13.8308 114.128 13.6402C114.447 13.4497 114.818 13.3635 115.188 13.3936C115.479 13.3717 115.77 13.4155 116.041 13.5216C116.312 13.6278 116.556 13.7935 116.755 14.0066C116.953 14.2198 117.101 14.4748 117.187 14.7528C117.273 15.0308 117.296 15.3247 117.254 15.6127V19.475H116.076V15.9083C116.076 14.9495 115.659 14.4727 114.789 14.4727C114.592 14.4635 114.395 14.4971 114.212 14.5711C114.029 14.645 113.864 14.7577 113.729 14.9013C113.594 15.0449 113.491 15.2161 113.428 15.4031C113.365 15.5901 113.343 15.7885 113.364 15.9847V19.4751H112.187V13.5087Z" fill="white"/>
<path d="M123.906 12.0234V13.536H125.199V14.5279H123.906V17.5958C123.906 18.2207 124.164 18.4944 124.75 18.4944C124.9 18.4939 125.05 18.4849 125.199 18.4672V19.448C124.987 19.4859 124.773 19.506 124.558 19.5082C123.249 19.5082 122.727 19.0475 122.727 17.8972V14.5278H121.78V13.536H122.727V12.0234H123.906Z" fill="white"/>
<path d="M126.808 11.1792H127.975V14.4671H128.068C128.224 14.1235 128.483 13.8365 128.809 13.6453C129.134 13.454 129.511 13.3678 129.887 13.3983C130.176 13.3826 130.465 13.4308 130.733 13.5395C131.001 13.6482 131.241 13.8147 131.438 14.0272C131.634 14.2396 131.781 14.4928 131.868 14.7685C131.955 15.0443 131.98 15.3359 131.942 15.6226V19.4746H130.763V15.9131C130.763 14.9601 130.319 14.4774 129.487 14.4774C129.285 14.4608 129.081 14.4887 128.891 14.5589C128.7 14.6292 128.528 14.7403 128.385 14.8844C128.241 15.0285 128.132 15.2021 128.063 15.393C127.994 15.584 127.967 15.7878 127.985 15.99V19.4746H126.808L126.808 11.1792Z" fill="white"/>
<path d="M138.807 17.8637C138.647 18.409 138.301 18.8807 137.828 19.1962C137.355 19.5118 136.787 19.6511 136.222 19.5898C135.829 19.6002 135.438 19.5249 135.077 19.3692C134.716 19.2134 134.393 18.981 134.131 18.688C133.869 18.395 133.673 18.0484 133.559 17.6724C133.444 17.2963 133.412 16.8998 133.466 16.5103C133.414 16.1195 133.446 15.7221 133.56 15.3449C133.675 14.9678 133.869 14.6196 134.13 14.324C134.391 14.0285 134.712 13.7924 135.072 13.6318C135.432 13.4712 135.823 13.3898 136.217 13.3932C137.877 13.3932 138.878 14.5274 138.878 16.4009V16.8118H134.665V16.8777C134.647 17.0967 134.674 17.3171 134.746 17.5248C134.818 17.7325 134.932 17.9229 135.082 18.0838C135.231 18.2447 135.413 18.3726 135.615 18.4593C135.817 18.5459 136.035 18.5894 136.254 18.587C136.536 18.6208 136.821 18.5701 137.074 18.4413C137.327 18.3125 137.536 18.1114 137.674 17.8637L138.807 17.8637ZM134.665 15.9409H137.679C137.694 15.7407 137.667 15.5395 137.599 15.3504C137.531 15.1613 137.425 14.9885 137.287 14.8429C137.149 14.6973 136.981 14.5823 136.796 14.5052C136.61 14.4282 136.411 14.3907 136.21 14.3953C136.007 14.3928 135.805 14.431 135.616 14.5078C135.427 14.5846 135.256 14.6983 135.112 14.8424C134.968 14.9864 134.854 15.1578 134.778 15.3465C134.701 15.5352 134.663 15.7373 134.665 15.9409H134.665Z" fill="white"/>
</svg>
