<svg width="22" height="20" viewBox="0 0 22 20" fill="none" xmlns="http://www.w3.org/2000/svg">
<path fill-rule="evenodd" clip-rule="evenodd" d="M16.9969 6.41795H21.3059C21.3059 2.95816 19.2329 0.937012 15.7204 0.937012H6.52297C3.01055 0.937012 0.9375 2.95816 0.9375 6.37382V13.8318C0.9375 17.2474 3.01055 19.2686 6.52297 19.2686H15.7204C19.2329 19.2686 21.3059 17.2474 21.3059 13.8318V13.514H16.9969C14.997 13.514 13.3758 11.9334 13.3758 9.98365C13.3758 8.03387 14.997 6.45326 16.9969 6.45326V6.41795ZM16.9962 7.93604H20.5449C20.9648 7.93604 21.3053 8.26796 21.3053 8.67742V11.2546C21.3004 11.6621 20.9628 11.9912 20.5449 11.996H17.0777C16.0653 12.0093 15.18 11.3334 14.9503 10.372C14.8353 9.77518 14.9968 9.15932 15.3914 8.68947C15.786 8.21962 16.3734 7.94384 16.9962 7.93604ZM17.1496 10.6456H17.4846C17.9145 10.6456 18.2631 10.3057 18.2631 9.88653C18.2631 9.46733 17.9145 9.12749 17.4846 9.12749H17.1496C16.944 9.12513 16.7459 9.20313 16.5997 9.34408C16.4534 9.48503 16.3711 9.6772 16.3711 9.8777C16.3711 10.2984 16.7182 10.6407 17.1496 10.6456ZM5.76186 6.41803H11.5103C11.9403 6.41803 12.2888 6.0782 12.2888 5.659C12.2888 5.23979 11.9403 4.89996 11.5103 4.89996H5.76186C5.33541 4.89994 4.9883 5.23442 4.98334 5.65017C4.98331 6.07083 5.33044 6.4132 5.76186 6.41803Z" fill="#71B1FC"/>
</svg>
