<svg width="20" height="20" viewBox="0 0 20 20" fill="none" xmlns="http://www.w3.org/2000/svg">
<path d="M20 10C20 15.5228 15.5228 20 10 20C4.47715 20 0 15.5228 0 10C0 4.47715 4.47715 0 10 0C15.5228 0 20 4.47715 20 10ZM2.75967 10C2.75967 13.9987 6.00128 17.2403 10 17.2403C13.9987 17.2403 17.2403 13.9987 17.2403 10C17.2403 6.00128 13.9987 2.75967 10 2.75967C6.00128 2.75967 2.75967 6.00128 2.75967 10Z" fill="#E8E8E8"/>
<path d="M10 0C12.1725 2.59066e-08 14.2859 0.707477 16.0205 2.01542C17.7551 3.32336 19.0167 5.16062 19.6142 7.2493C20.2118 9.33797 20.113 11.5644 19.3326 13.5919C18.5523 15.6194 17.1329 17.3377 15.2892 18.4867C13.4455 19.6358 11.2777 20.1532 9.11376 19.9607C6.94983 19.7681 4.90745 18.8761 3.29556 17.4196C1.68366 15.9631 0.589937 14.0212 0.179811 11.8878C-0.230315 9.75441 0.0654689 7.54546 1.02242 5.5951L3.50682 6.81408C2.81469 8.22471 2.60076 9.82237 2.89739 11.3654C3.19402 12.9084 3.98507 14.3129 5.1509 15.3663C6.31673 16.4198 7.79391 17.065 9.35901 17.2042C10.9241 17.3435 12.492 16.9692 13.8255 16.1382C15.159 15.3071 16.1856 14.0643 16.75 12.5979C17.3144 11.1315 17.3859 9.52118 16.9537 8.01051C16.5214 6.49984 15.609 5.17101 14.3544 4.22502C13.0998 3.27903 11.5713 2.76734 10 2.76734V0Z" fill="#319EFF"/>
</svg>
