<svg width="18" height="18" viewBox="0 0 18 18" fill="none" xmlns="http://www.w3.org/2000/svg">
<path fill-rule="evenodd" clip-rule="evenodd" d="M5.28544 17.5716H12.714C15.6199 17.5716 17.5716 15.5332 17.5716 12.5001V5.50019C17.5716 2.46709 15.6199 0.428711 12.7148 0.428711H5.28544C2.38034 0.428711 0.428711 2.46709 0.428711 5.50019V12.5001C0.428711 15.5332 2.38034 17.5716 5.28544 17.5716ZM6.00033 8.14286C4.81863 8.14286 3.85845 7.18137 3.85845 6C3.85845 4.81863 4.81863 3.85714 6.00033 3.85714C7.18117 3.85714 8.14221 4.81863 8.14221 6C8.14221 7.18137 7.18117 8.14286 6.00033 8.14286ZM15.7048 11.515C15.9918 12.251 15.8427 13.1356 15.5358 13.8644C15.1721 14.7313 14.4757 15.3877 13.5982 15.6743C13.2086 15.8016 12.8001 15.8574 12.3924 15.8574H5.16863C4.44979 15.8574 3.81369 15.6849 3.29223 15.3638C2.96556 15.1621 2.90781 14.6968 3.15001 14.3952C3.55511 13.891 3.95504 13.385 4.35842 12.8746C5.12726 11.8981 5.64528 11.615 6.22104 11.8636C6.45462 11.9662 6.68906 12.1201 6.9304 12.2828C7.5734 12.7198 8.46721 13.3204 9.6446 12.6685C10.4503 12.2172 10.9176 11.4432 11.3246 10.7691L11.3314 10.7578C11.3602 10.7106 11.3888 10.6633 11.4173 10.6161C11.5541 10.3898 11.689 10.1665 11.8416 9.96085C12.033 9.70345 12.7423 8.89849 13.6612 9.47169C14.2464 9.83259 14.7386 10.3209 15.2652 10.8436C15.466 11.0436 15.6091 11.2709 15.7048 11.515Z" fill="#319EFF"/>
</svg>
