<svg width="17" height="21" viewBox="0 0 17 21" fill="none" xmlns="http://www.w3.org/2000/svg">
<path fill-rule="evenodd" clip-rule="evenodd" d="M0 8.96473C0 4.36486 3.84388 0.646973 8.49345 0.646973C13.1561 0.646973 17 4.36486 17 8.96473C17 11.2827 16.157 13.4346 14.7695 15.2585C13.2388 17.2705 11.3522 19.0234 9.22854 20.3994C8.74251 20.7174 8.30387 20.7414 7.77045 20.3994C5.63474 19.0234 3.74809 17.2705 2.2305 15.2585C0.841983 13.4346 0 11.2827 0 8.96473ZM5.69415 9.22375C5.69415 10.7647 6.95158 11.9767 8.49337 11.9767C10.0362 11.9767 11.3057 10.7647 11.3057 9.22375C11.3057 7.69479 10.0362 6.42383 8.49337 6.42383C6.95158 6.42383 5.69415 7.69479 5.69415 9.22375Z" fill="#CBCBCB"/>
</svg>
