<svg width="19" height="22" viewBox="0 0 19 22" fill="none" xmlns="http://www.w3.org/2000/svg">
<path fill-rule="evenodd" clip-rule="evenodd" d="M0.9375 9.57409C0.9375 4.79763 4.92895 0.937012 9.75701 0.937012C14.5987 0.937012 18.5901 4.79763 18.5901 9.57409C18.5901 11.981 17.7148 14.2156 16.274 16.1095C14.6845 18.1987 12.7255 20.019 10.5203 21.4477C10.0156 21.7779 9.56016 21.8029 9.00626 21.4477C6.78855 20.019 4.82948 18.1987 3.25363 16.1095C1.81181 14.2156 0.9375 11.981 0.9375 9.57409ZM6.85046 9.84289C6.85046 11.443 8.15617 12.7015 9.75714 12.7015C11.3592 12.7015 12.6774 11.443 12.6774 9.84289C12.6774 8.25524 11.3592 6.93549 9.75714 6.93549C8.15617 6.93549 6.85046 8.25524 6.85046 9.84289Z" fill="#71B1FC"/>
</svg>
