<svg width="17" height="20" viewBox="0 0 17 20" fill="none" xmlns="http://www.w3.org/2000/svg">
<path fill-rule="evenodd" clip-rule="evenodd" d="M15.2071 6.79633C15.2071 8.05226 15.539 8.79253 16.2695 9.64559C16.8231 10.2741 17 11.0808 17 11.956C17 12.8302 16.7128 13.6601 16.1373 14.3339C15.384 15.1417 14.3215 15.6573 13.2372 15.747C11.6659 15.8809 10.0937 15.9937 8.5005 15.9937C6.90634 15.9937 5.33505 15.9263 3.76375 15.747C2.67846 15.6573 1.61602 15.1417 0.863666 14.3339C0.28822 13.6601 0 12.8302 0 11.956C0 11.0808 0.177901 10.2741 0.730488 9.64559C1.48384 8.79253 1.79392 8.05226 1.79392 6.79633V6.3703C1.79392 4.68834 2.21333 3.58852 3.077 2.51186C4.36106 0.941697 6.41935 0 8.45577 0H8.54522C10.6254 0 12.7502 0.987019 14.0125 2.62466C14.8314 3.67916 15.2071 4.73265 15.2071 6.3703V6.79633ZM5.57373 18.0607C5.57373 17.5571 6.03588 17.3265 6.46324 17.2278C6.96315 17.122 10.0093 17.122 10.5092 17.2278C10.9366 17.3265 11.3988 17.5571 11.3988 18.0607C11.3739 18.5401 11.0926 18.9651 10.704 19.235C10.2002 19.6278 9.60881 19.8766 8.99063 19.9662C8.64874 20.0105 8.31281 20.0115 7.98285 19.9662C7.36368 19.8766 6.77233 19.6278 6.26943 19.234C5.87984 18.9651 5.59858 18.5401 5.57373 18.0607Z" fill="#130F26"/>
</svg>
