<svg width="327" height="1075" viewBox="0 0 327 1075" fill="none" xmlns="http://www.w3.org/2000/svg">
<g clip-path="url(#clip0_2039_3740)">
<rect width="327" height="1075" fill="white"/>
<path d="M0 0H326.882V490.323H0V0Z" fill="#037FFB"/>
<path d="M40.8602 163.441H0V204.301H40.8602V163.441Z" fill="#59AAF8"/>
<path d="M81.7204 204.301H0V245.161H81.7204V204.301Z" fill="#2D9AFF"/>
<g clip-path="url(#clip1_2039_3740)">
<path d="M81.7207 0V81.7204H104.021C104.015 84.1603 104.491 86.5772 105.422 88.8327C106.352 91.0882 107.718 93.1378 109.443 94.8638C111.167 96.5899 113.215 97.9585 115.47 98.891C117.725 99.8236 120.141 100.302 122.581 100.298C127.496 100.298 132.21 98.3457 135.685 94.8702C139.161 91.3947 141.113 86.6809 141.113 81.7658H163.441V0.0453961L81.7207 0Z" fill="#7AB8F4"/>
</g>
<path opacity="0.35" d="M294.211 9.93083C294.211 8.73421 295.181 7.76416 296.378 7.76416H308.725C309.921 7.76416 310.891 8.73421 310.891 9.93083V13.7055C310.891 14.9021 309.921 15.8722 308.725 15.8722H296.378C295.181 15.8722 294.211 14.9021 294.211 13.7055V9.93083Z" stroke="white"/>
<path opacity="0.4" d="M312.194 10.2109V13.4255C312.841 13.1533 313.262 12.5199 313.262 11.8182C313.262 11.1165 312.841 10.4832 312.194 10.2109Z" fill="white"/>
<path d="M295.318 10.2044C295.318 9.46805 295.915 8.87109 296.652 8.87109H308.451C309.187 8.87109 309.784 9.46805 309.784 10.2044V13.4312C309.784 14.1676 309.187 14.7645 308.451 14.7645H296.652C295.915 14.7645 295.318 14.1676 295.318 13.4312V10.2044Z" fill="white"/>
<path fill-rule="evenodd" clip-rule="evenodd" d="M283.529 9.09433C285.31 9.09441 287.022 9.77866 288.313 11.0057C288.41 11.1004 288.565 11.0992 288.661 11.003L289.59 10.0654C289.639 10.0166 289.666 9.9505 289.665 9.88173C289.665 9.81295 289.637 9.74717 289.588 9.69894C286.201 6.45257 280.856 6.45257 277.469 9.69894C277.42 9.74713 277.392 9.8129 277.392 9.88167C277.391 9.95045 277.418 10.0166 277.467 10.0654L278.396 11.003C278.492 11.0994 278.647 11.1005 278.744 11.0057C280.035 9.77858 281.748 9.09433 283.529 9.09433ZM283.529 12.1446C284.507 12.1446 285.451 12.5082 286.176 13.165C286.274 13.2582 286.429 13.2562 286.524 13.1604L287.452 12.2228C287.501 12.1737 287.528 12.1069 287.528 12.0376C287.527 11.9683 287.499 11.9021 287.449 11.854C285.24 9.79953 281.82 9.79953 279.611 11.854C279.561 11.9021 279.533 11.9683 279.532 12.0377C279.532 12.107 279.559 12.1737 279.608 12.2228L280.535 13.1604C280.631 13.2562 280.786 13.2582 280.884 13.165C281.608 12.5087 282.551 12.145 283.529 12.1446ZM285.388 14.1966C285.389 14.2661 285.362 14.3331 285.312 14.3818L283.707 16.0017C283.66 16.0493 283.596 16.0761 283.529 16.0761C283.462 16.0761 283.398 16.0493 283.351 16.0017L281.745 14.3818C281.696 14.3331 281.668 14.266 281.67 14.1965C281.671 14.127 281.701 14.0612 281.753 14.0145C282.778 13.1475 284.279 13.1475 285.305 14.0145C285.356 14.0612 285.386 14.127 285.388 14.1966Z" fill="white"/>
<path fill-rule="evenodd" clip-rule="evenodd" d="M272.548 7.26416H271.744C271.3 7.26416 270.941 7.62397 270.941 8.06781V15.0328C270.941 15.4766 271.3 15.8364 271.744 15.8364H272.548C272.992 15.8364 273.351 15.4766 273.351 15.0328V8.06781C273.351 7.62397 272.992 7.26416 272.548 7.26416ZM267.994 9.13907H268.797C269.241 9.13907 269.601 9.49887 269.601 9.94271V15.0325C269.601 15.4763 269.241 15.8361 268.797 15.8361H267.994C267.55 15.8361 267.19 15.4763 267.19 15.0325V9.94271C267.19 9.49887 267.55 9.13907 267.994 9.13907ZM265.047 11.015H264.243C263.8 11.015 263.44 11.3748 263.44 11.8186V15.0332C263.44 15.4771 263.8 15.8369 264.243 15.8369H265.047C265.491 15.8369 265.851 15.4771 265.851 15.0332V11.8186C265.851 11.3748 265.491 11.015 265.047 11.015ZM261.297 12.6222H260.493C260.049 12.6222 259.689 12.982 259.689 13.4258V15.0331C259.689 15.477 260.049 15.8368 260.493 15.8368H261.297C261.741 15.8368 262.1 15.477 262.1 15.0331V13.4258C262.1 12.982 261.741 12.6222 261.297 12.6222Z" fill="white"/>
<g clip-path="url(#clip2_2039_3740)">
<path d="M100.253 40.8602C100.259 43.2978 99.7838 45.7125 98.8552 47.9662C97.9265 50.2199 96.5624 52.2683 94.8409 53.994C93.1194 55.7197 91.0744 57.0888 88.823 58.023C86.5715 58.9572 84.158 59.438 81.7204 59.438V81.7658H0V0.0454102H81.7204V22.3733C86.6277 22.3732 91.3346 24.3195 94.8088 27.7852C98.283 31.2509 100.241 35.953 100.253 40.8602Z" fill="#91C4F5"/>
<path opacity="0.61" d="M0 0L40.8602 40.8602L0 81.7204V0Z" fill="#7AB8F4"/>
</g>
<path opacity="0.56" d="M245.161 0H163.44V81.7204H245.161V0Z" fill="#59AAF8"/>
<path d="M245.161 0H163.44V81.7204H245.161V0Z" fill="#59AAF8"/>
<path d="M195.638 40.8602V81.7204H178.313V39.8433C180.42 40.5194 182.62 40.8625 184.833 40.8602H195.638Z" fill="#4099EF"/>
<path d="M230.288 40.5518V81.7207H212.981V40.8605H227.019C228.116 40.8631 229.211 40.7597 230.288 40.5518Z" fill="#4099EF"/>
<path d="M163.44 0H245.161V22.7001C245.161 27.5165 243.248 32.1356 239.842 35.5412C236.436 38.9469 231.817 40.8602 227.001 40.8602H184.842C179.166 40.8602 173.722 38.6054 169.709 34.5918C165.695 30.5782 163.44 25.1346 163.44 19.4585V0Z" fill="#91C4F5"/>
<path d="M204.301 49.5225C209.085 49.5225 212.963 45.6442 212.963 40.8601C212.963 36.076 209.085 32.1978 204.301 32.1978C199.517 32.1978 195.639 36.076 195.639 40.8601C195.639 45.6442 199.517 49.5225 204.301 49.5225Z" fill="#83BDF4"/>
<g clip-path="url(#clip3_2039_3740)">
<path d="M326.882 0H245.161V81.7204H326.882V0Z" fill="#3F9DF7"/>
<path d="M326.882 0V81.7204H263.321C258.505 81.7204 253.886 79.8071 250.48 76.4015C247.074 72.9958 245.161 68.3767 245.161 63.5603V14.4554C245.161 10.6216 246.684 6.94482 249.395 4.2339C252.106 1.52298 255.783 0 259.617 0H326.882Z" fill="#59AAF8"/>
<path d="M326.882 0V81.7204H283.879C281.494 81.7204 279.133 81.2507 276.929 80.3381C274.726 79.4255 272.724 78.0878 271.038 76.4015C267.632 72.9958 265.719 68.3767 265.719 63.5603V14.4554C265.719 10.6216 267.242 6.94482 269.953 4.2339C272.664 1.52298 276.34 0 280.174 0H326.882Z" fill="#3F9DF6"/>
<path d="M326.882 0.0365092V81.6843H326.727C315.891 81.6843 305.498 77.3794 297.835 69.7166C290.172 62.0538 285.867 51.6609 285.867 40.8241C285.867 29.9873 290.172 19.5943 297.835 11.9315C305.498 4.26877 315.891 -0.0361328 326.727 -0.0361328L326.882 0.0365092Z" fill="#318EE7"/>
<path d="M326.882 11.4136V70.334H326.737C322.867 70.334 319.036 69.5715 315.462 68.0899C311.887 66.6084 308.64 64.4369 305.905 61.6997C303.17 58.9624 301.002 55.713 299.524 52.1373C298.045 48.5615 297.286 44.7295 297.29 40.8602C297.29 33.0505 300.392 25.5606 305.915 20.0383C311.437 14.516 318.927 11.4136 326.737 11.4136H326.882Z" fill="#59AAF8"/>
</g>
<path d="M81.7204 81.7202H0V163.441H81.7204V81.7202Z" fill="#7AB8F4"/>
<path d="M40.8602 163.441C63.4267 163.441 81.7204 145.147 81.7204 122.58C81.7204 100.014 63.4267 81.7202 40.8602 81.7202C18.2937 81.7202 0 100.014 0 122.58C0 145.147 18.2937 163.441 40.8602 163.441Z" fill="#2691F5"/>
<path d="M245.189 131.742V81.7202H163.468H141.141C141.141 84.1539 140.661 86.5638 139.73 88.8123C138.799 91.0607 137.433 93.1037 135.713 94.8246C133.992 96.5455 131.949 97.9106 129.7 98.8419C127.452 99.7732 125.042 100.253 122.608 100.253C117.695 100.26 112.979 98.3155 109.499 94.8471C106.019 91.3787 104.058 86.6701 104.049 81.7565H81.7207V131.697H122.581V131.806C122.583 140.183 125.912 148.217 131.836 154.14C137.76 160.064 145.793 163.393 154.17 163.395H172.712C181.089 163.393 189.123 160.064 195.046 154.14C200.97 148.217 204.299 140.183 204.301 131.806V131.697H219.392V191.671L204.301 206.852H245.162L231.224 191.671V131.697L245.189 131.742Z" fill="#2D9AFF"/>
<path d="M327 81.7202H245.279V245.161H327V81.7202Z" fill="#1990FF"/>
<path opacity="0.34" d="M327 245.161H245.279V326.882H327V245.161Z" fill="#7AB8F4"/>
<path d="M327 245.161H245.279V262.35H286.14C289.694 262.378 293.094 263.811 295.597 266.335C298.101 268.859 299.506 272.27 299.506 275.824C299.507 277.762 299.089 279.676 298.28 281.436C297.471 283.196 296.291 284.761 294.82 286.021H245.152V303.201H258.5L282.163 326.863H306.461L282.771 303.201H327V286.021H314.951C316.104 282.746 316.691 279.297 316.685 275.824C316.693 271.154 315.627 266.543 313.571 262.35H327V245.161Z" fill="#91C4F5"/>
<path d="M327 129.055V197.836C317.878 197.836 309.129 194.212 302.679 187.762C296.228 181.312 292.604 172.563 292.604 163.441C292.604 158.924 293.494 154.452 295.223 150.28C296.951 146.107 299.485 142.316 302.679 139.123C305.873 135.93 309.665 133.397 313.838 131.67C318.011 129.942 322.483 129.053 327 129.055Z" fill="#0A7BE7"/>
<path d="M268.651 163.441C268.651 178.884 274.786 193.695 285.706 204.616C296.627 215.536 311.438 221.671 326.882 221.671V245.161C305.208 245.161 284.422 236.551 269.096 221.226C253.771 205.9 245.161 185.114 245.161 163.441C245.161 141.767 253.771 120.981 269.096 105.656C284.422 90.33 305.208 81.7202 326.882 81.7202V105.21C311.438 105.21 296.627 111.345 285.706 122.266C274.786 133.186 268.651 147.997 268.651 163.441Z" fill="#0A7BE7"/>
<g clip-path="url(#clip4_2039_3740)">
<path d="M0.000267029 245.161H81.7207V326.882H0.000267029V245.161Z" fill="#91C4F5"/>
<path opacity="0.61" d="M81.7207 245.161L40.8605 286.021L81.7207 326.882V245.161Z" fill="#5FA7EB"/>
</g>
<circle cx="81.7204" cy="408.602" r="81.7204" fill="#7AB8F4"/>
<path d="M163.441 408.602C163.441 426.468 157.586 443.841 146.773 458.063C135.961 472.284 120.785 482.571 103.57 487.348C86.355 492.124 68.0489 491.128 51.4539 484.511C34.8589 477.894 20.8895 466.022 11.6839 450.711C2.47828 435.399 -1.4562 417.493 0.48268 399.733C2.42156 381.973 10.127 365.338 22.4194 352.374C34.7119 339.41 50.9141 330.831 68.5459 327.951C86.1776 325.071 104.267 328.048 120.046 336.426L81.7204 408.602H163.441Z" fill="#91C4F5"/>
<path d="M163.441 408.602C163.441 422.567 159.862 436.298 153.047 448.487C146.231 460.675 136.406 470.914 124.509 478.225C112.611 485.537 99.0388 489.678 85.0861 490.253C71.1334 490.829 57.2661 487.819 44.8073 481.511C32.3486 475.203 21.7141 465.808 13.9185 454.222C6.12299 442.636 1.42652 429.245 0.27723 415.328C-0.872056 401.411 1.56419 387.431 7.35351 374.723C13.1428 362.015 22.0921 351.003 33.3473 342.737L81.7204 408.602H163.441Z" fill="#2D9AFF"/>
<rect x="163.44" y="326.882" width="163.441" height="108.053" fill="#2D9AFF"/>
<rect x="227.001" y="434.934" width="36.3202" height="17.2521" fill="#2D9AFF"/>
<rect x="163.44" y="452.187" width="163.441" height="38.1362" fill="#2D9AFF"/>
<rect x="255.149" y="463.083" width="57.2043" height="16.3441" rx="8.17204" fill="#7AB8F4"/>
<circle cx="185.233" cy="471.255" r="8.17204" fill="#7AB8F4"/>
<circle cx="210.657" cy="471.255" r="8.17204" fill="#7AB8F4"/>
<path d="M0 980.323H326.882V490H0V980.323Z" fill="#319EFF"/>
<path d="M40.8602 816.882H0V776.022H40.8602V816.882Z" fill="#59AAF8"/>
<path d="M81.7204 776.021H0V735.161H81.7204V776.021Z" fill="#2D9AFF"/>
<g clip-path="url(#clip5_2039_3740)">
<path d="M81.7207 980.323V898.602H104.021C104.015 896.162 104.491 893.746 105.422 891.49C106.352 889.235 107.718 887.185 109.443 885.459C111.167 883.733 113.215 882.364 115.47 881.432C117.725 880.499 120.141 880.021 122.581 880.025C127.496 880.025 132.21 881.977 135.685 885.453C139.161 888.928 141.113 893.642 141.113 898.557H163.441V980.277L81.7207 980.323Z" fill="#7AB8F4"/>
</g>
<path opacity="0.35" d="M294.211 970.392C294.211 971.589 295.181 972.559 296.378 972.559H308.725C309.921 972.559 310.891 971.589 310.891 970.392V966.617C310.891 965.421 309.921 964.451 308.725 964.451H296.378C295.181 964.451 294.211 965.421 294.211 966.617V970.392Z" stroke="white"/>
<path opacity="0.4" d="M312.194 970.112V966.897C312.841 967.169 313.262 967.803 313.262 968.505C313.262 969.206 312.841 969.84 312.194 970.112Z" fill="white"/>
<path d="M295.318 970.118C295.318 970.855 295.915 971.452 296.652 971.452H308.451C309.187 971.452 309.784 970.855 309.784 970.118V966.892C309.784 966.155 309.187 965.558 308.451 965.558H296.652C295.915 965.558 295.318 966.155 295.318 966.892V970.118Z" fill="white"/>
<path fill-rule="evenodd" clip-rule="evenodd" d="M283.529 971.228C285.31 971.228 287.022 970.544 288.313 969.317C288.41 969.222 288.565 969.224 288.661 969.32L289.59 970.257C289.639 970.306 289.666 970.372 289.665 970.441C289.665 970.51 289.637 970.576 289.588 970.624C286.201 973.87 280.856 973.87 277.469 970.624C277.42 970.576 277.392 970.51 277.392 970.441C277.391 970.372 277.418 970.306 277.467 970.257L278.396 969.32C278.492 969.223 278.647 969.222 278.744 969.317C280.035 970.544 281.748 971.228 283.529 971.228ZM283.529 968.178C284.507 968.178 285.451 967.814 286.176 967.158C286.274 967.065 286.429 967.067 286.524 967.162L287.452 968.1C287.501 968.149 287.528 968.216 287.528 968.285C287.527 968.354 287.499 968.421 287.449 968.469C285.24 970.523 281.82 970.523 279.611 968.469C279.561 968.421 279.533 968.354 279.532 968.285C279.532 968.216 279.559 968.149 279.608 968.1L280.535 967.162C280.631 967.067 280.786 967.065 280.884 967.158C281.608 967.814 282.551 968.178 283.529 968.178ZM285.388 966.126C285.389 966.057 285.362 965.99 285.312 965.941L283.707 964.321C283.66 964.273 283.596 964.247 283.529 964.247C283.462 964.247 283.398 964.273 283.351 964.321L281.745 965.941C281.696 965.99 281.668 966.057 281.67 966.126C281.671 966.196 281.701 966.262 281.753 966.308C282.778 967.175 284.279 967.175 285.305 966.308C285.356 966.262 285.386 966.196 285.388 966.126Z" fill="white"/>
<path fill-rule="evenodd" clip-rule="evenodd" d="M272.548 973.059H271.744C271.3 973.059 270.941 972.699 270.941 972.255V965.29C270.941 964.846 271.3 964.486 271.744 964.486H272.548C272.992 964.486 273.351 964.846 273.351 965.29V972.255C273.351 972.699 272.992 973.059 272.548 973.059ZM267.994 971.184H268.797C269.241 971.184 269.601 970.824 269.601 970.38V965.29C269.601 964.846 269.241 964.487 268.797 964.487H267.994C267.55 964.487 267.19 964.846 267.19 965.29V970.38C267.19 970.824 267.55 971.184 267.994 971.184ZM265.047 969.308H264.243C263.8 969.308 263.44 968.948 263.44 968.504V965.289C263.44 964.846 263.8 964.486 264.243 964.486H265.047C265.491 964.486 265.851 964.846 265.851 965.289V968.504C265.851 968.948 265.491 969.308 265.047 969.308ZM261.297 967.701H260.493C260.049 967.701 259.689 967.341 259.689 966.897V965.29C259.689 964.846 260.049 964.486 260.493 964.486H261.297C261.741 964.486 262.1 964.846 262.1 965.29V966.897C262.1 967.341 261.741 967.701 261.297 967.701Z" fill="white"/>
<g clip-path="url(#clip6_2039_3740)">
<path d="M100.253 939.463C100.259 937.025 99.7838 934.61 98.8552 932.357C97.9265 930.103 96.5624 928.054 94.8409 926.329C93.1194 924.603 91.0744 923.234 88.823 922.3C86.5715 921.366 84.158 920.885 81.7204 920.885V898.557H0V980.277H81.7204V957.95C86.6277 957.95 91.3346 956.003 94.8088 952.538C98.283 949.072 100.241 944.37 100.253 939.463Z" fill="#91C4F5"/>
<path opacity="0.61" d="M0 980.323L40.8602 939.463L0 898.602V980.323Z" fill="#7AB8F4"/>
</g>
<path opacity="0.56" d="M245.161 980.323H163.44V898.602H245.161V980.323Z" fill="#59AAF8"/>
<path d="M245.161 980.323H163.44V898.602H245.161V980.323Z" fill="#59AAF8"/>
<path d="M195.638 939.463V898.602H178.313V940.479C180.42 939.803 182.62 939.46 184.833 939.463H195.638Z" fill="#4099EF"/>
<path d="M230.288 939.771V898.602H212.981V939.462H227.019C228.116 939.46 229.211 939.563 230.288 939.771Z" fill="#4099EF"/>
<path d="M163.44 980.323H245.161V957.623C245.161 952.806 243.248 948.187 239.842 944.782C236.436 941.376 231.817 939.463 227.001 939.463H184.842C179.166 939.463 173.722 941.717 169.709 945.731C165.695 949.745 163.44 955.188 163.44 960.864V980.323Z" fill="#91C4F5"/>
<path d="M204.301 930.8C209.085 930.8 212.963 934.679 212.963 939.463C212.963 944.247 209.085 948.125 204.301 948.125C199.517 948.125 195.639 944.247 195.639 939.463C195.639 934.679 199.517 930.8 204.301 930.8Z" fill="#83BDF4"/>
<g clip-path="url(#clip7_2039_3740)">
<path d="M326.882 980.323H245.161V898.602H326.882V980.323Z" fill="#3F9DF7"/>
<path d="M326.882 980.323V898.602H263.321C258.505 898.602 253.886 900.516 250.48 903.921C247.074 907.327 245.161 911.946 245.161 916.762V965.867C245.161 969.701 246.684 973.378 249.395 976.089C252.106 978.8 255.783 980.323 259.617 980.323H326.882Z" fill="#59AAF8"/>
<path d="M326.882 980.323V898.602H283.879C281.494 898.602 279.133 899.072 276.929 899.985C274.726 900.897 272.724 902.235 271.038 903.921C267.632 907.327 265.719 911.946 265.719 916.762V965.867C265.719 969.701 267.242 973.378 269.953 976.089C272.664 978.8 276.34 980.323 280.174 980.323H326.882Z" fill="#3F9DF6"/>
<path d="M326.882 980.286V898.638H326.727C315.891 898.638 305.498 902.943 297.835 910.606C290.172 918.269 285.867 928.662 285.867 939.499C285.867 950.335 290.172 960.728 297.835 968.391C305.498 976.054 315.891 980.359 326.727 980.359L326.882 980.286Z" fill="#318EE7"/>
<path d="M326.882 968.909V909.989H326.737C322.867 909.989 319.036 910.751 315.462 912.233C311.887 913.714 308.64 915.886 305.905 918.623C303.17 921.36 301.002 924.61 299.524 928.185C298.045 931.761 297.286 935.593 297.29 939.463C297.29 947.272 300.392 954.762 305.915 960.284C311.437 965.807 318.927 968.909 326.737 968.909H326.882Z" fill="#59AAF8"/>
</g>
<path d="M81.7204 898.603H0V816.882H81.7204V898.603Z" fill="#7AB8F4"/>
<path d="M40.8602 816.882C63.4267 816.882 81.7204 835.176 81.7204 857.742C81.7204 880.309 63.4267 898.603 40.8602 898.603C18.2937 898.603 0 880.309 0 857.742C0 835.176 18.2937 816.882 40.8602 816.882Z" fill="#2691F5"/>
<path d="M245.189 848.581V898.603H163.468H141.141C141.141 896.169 140.661 893.759 139.73 891.51C138.799 889.262 137.433 887.219 135.713 885.498C133.992 883.777 131.949 882.412 129.7 881.481C127.452 880.55 125.042 880.07 122.608 880.07C117.695 880.063 112.979 882.007 109.499 885.476C106.019 888.944 104.058 893.653 104.049 898.566H81.7207V848.626H122.581V848.517C122.583 840.14 125.912 832.106 131.836 826.183C137.76 820.259 145.793 816.93 154.17 816.927H172.712C181.089 816.93 189.123 820.259 195.046 826.183C200.97 832.106 204.299 840.14 204.301 848.517V848.626H219.392V788.652L204.301 773.47H245.162L231.224 788.652V848.626L245.189 848.581Z" fill="#2D9AFF"/>
<path d="M327 898.603H245.279V735.162H327V898.603Z" fill="#1990FF"/>
<path opacity="0.34" d="M327 735.162H245.279V653.441H327V735.162Z" fill="#7AB8F4"/>
<path d="M327 735.162H245.279V717.973H286.14C289.694 717.944 293.094 716.512 295.597 713.988C298.101 711.464 299.506 708.053 299.506 704.498C299.507 702.561 299.089 700.647 298.28 698.887C297.471 697.126 296.291 695.562 294.82 694.301H245.152V677.122H258.5L282.163 653.459H306.461L282.771 677.122H327V694.301H314.951C316.104 697.577 316.691 701.025 316.685 704.498C316.693 709.169 315.627 713.779 313.571 717.973H327V735.162Z" fill="#91C4F5"/>
<path d="M327 851.268V782.487C317.878 782.487 309.129 786.11 302.679 792.561C296.228 799.011 292.604 807.76 292.604 816.882C292.604 821.398 293.494 825.871 295.223 830.043C296.951 834.216 299.485 838.007 302.679 841.2C305.873 844.393 309.665 846.926 313.838 848.653C318.011 850.381 322.483 851.269 327 851.268Z" fill="#0A7BE7"/>
<path d="M268.651 816.882C268.651 801.438 274.786 786.627 285.706 775.707C296.627 764.787 311.438 758.652 326.882 758.652V735.162C305.208 735.162 284.422 743.771 269.096 759.097C253.771 774.423 245.161 795.208 245.161 816.882C245.161 838.556 253.771 859.342 269.096 874.667C284.422 889.993 305.208 898.603 326.882 898.603V875.112C311.438 875.112 296.627 868.977 285.706 858.057C274.786 847.137 268.651 832.326 268.651 816.882Z" fill="#0A7BE7"/>
<g clip-path="url(#clip8_2039_3740)">
<path d="M0.000267029 735.162H81.7207V653.441H0.000267029V735.162Z" fill="#91C4F5"/>
<path opacity="0.61" d="M81.7207 735.162L40.8605 694.301L81.7207 653.441V735.162Z" fill="#5FA7EB"/>
</g>
<circle cx="81.7204" cy="81.7204" r="81.7204" transform="matrix(1 0 0 -1 0 653.441)" fill="#7AB8F4"/>
<path d="M163.441 571.72C163.441 553.855 157.586 536.482 146.773 522.26C135.961 508.038 120.785 497.752 103.57 492.975C86.355 488.198 68.0489 489.195 51.4539 495.812C34.8589 502.428 20.8895 514.301 11.6839 529.612C2.47828 544.923 -1.4562 562.829 0.48268 580.589C2.42156 598.349 10.127 614.985 22.4194 627.949C34.7119 640.913 50.9141 649.492 68.5459 652.372C86.1776 655.252 104.267 652.275 120.046 643.896L81.7204 571.72H163.441Z" fill="#91C4F5"/>
<path d="M163.441 571.72C163.441 557.756 159.862 544.024 153.047 531.836C146.231 519.648 136.406 509.409 124.509 502.097C112.611 494.786 99.0388 490.645 85.0861 490.069C71.1334 489.494 57.2661 492.504 44.8073 498.812C32.3486 505.12 21.7141 514.515 13.9185 526.101C6.12299 537.687 1.42652 551.078 0.27723 564.995C-0.872056 578.912 1.56419 592.892 7.35351 605.6C13.1428 618.308 22.0921 629.32 33.3473 637.586L81.7204 571.72H163.441Z" fill="#2D9AFF"/>
<rect width="163.441" height="108.053" transform="matrix(1 0 0 -1 163.44 653.441)" fill="#2D9AFF"/>
<rect width="36.3202" height="17.2521" transform="matrix(1 0 0 -1 227.001 545.389)" fill="#2D9AFF"/>
<rect width="163.441" height="38.1362" transform="matrix(1 0 0 -1 163.44 528.136)" fill="#2D9AFF"/>
<rect width="57.2043" height="16.3441" rx="8.17204" transform="matrix(1 0 0 -1 255.149 517.24)" fill="#7AB8F4"/>
<circle cx="8.17204" cy="8.17204" r="8.17204" transform="matrix(1 0 0 -1 177.061 517.24)" fill="#7AB8F4"/>
<circle cx="8.17204" cy="8.17204" r="8.17204" transform="matrix(1 0 0 -1 202.485 517.24)" fill="#7AB8F4"/>
<rect width="327" height="3728" fill="url(#paint0_linear_2039_3740)"/>
</g>
<defs>
<linearGradient id="paint0_linear_2039_3740" x1="163.5" y1="0" x2="163.5" y2="1332.3" gradientUnits="userSpaceOnUse">
<stop stop-color="#2F82FF" stop-opacity="0.63"/>
<stop offset="1" stop-color="#2F9BFF"/>
</linearGradient>
<clipPath id="clip0_2039_3740">
<rect width="327" height="1075" fill="white"/>
</clipPath>
<clipPath id="clip1_2039_3740">
<rect width="81.7204" height="100.253" fill="white" transform="translate(81.7207)"/>
</clipPath>
<clipPath id="clip2_2039_3740">
<rect width="100.253" height="81.7204" fill="white"/>
</clipPath>
<clipPath id="clip3_2039_3740">
<rect width="81.7204" height="81.7204" fill="white" transform="translate(245.161)"/>
</clipPath>
<clipPath id="clip4_2039_3740">
<rect width="81.7204" height="81.7204" fill="white" transform="matrix(-1 0 0 1 81.7207 245.161)"/>
</clipPath>
<clipPath id="clip5_2039_3740">
<rect width="81.7204" height="100.253" fill="white" transform="matrix(1 0 0 -1 81.7207 980.323)"/>
</clipPath>
<clipPath id="clip6_2039_3740">
<rect width="100.253" height="81.7204" fill="white" transform="matrix(1 0 0 -1 0 980.323)"/>
</clipPath>
<clipPath id="clip7_2039_3740">
<rect width="81.7204" height="81.7204" fill="white" transform="matrix(1 0 0 -1 245.161 980.323)"/>
</clipPath>
<clipPath id="clip8_2039_3740">
<rect width="81.7204" height="81.7204" fill="white" transform="matrix(-1 0 0 -1 81.7207 735.162)"/>
</clipPath>
</defs>
</svg>
