<svg width="101" height="87" viewBox="0 0 101 87" fill="none" xmlns="http://www.w3.org/2000/svg">
<path d="M88.8584 17.7479L88.3501 18.136C70.1832 32.4208 53.9003 58.2142 46.9924 71.6482L22.3213 35.8241L45.4971 48.5118C59.2531 30.0027 78.6461 15.4193 86.6156 10.4487C84.9779 7.30612 82.5096 4.67106 79.4785 2.82918C76.4474 0.987295 72.9691 0.00887894 69.4206 0L20.0784 0C14.9232 0 9.97913 2.04442 6.33383 5.68351C2.68853 9.3226 0.640625 14.2583 0.640625 19.4047L0.640625 67.1702C0.640625 72.3166 2.68853 77.2523 6.33383 80.8914C9.97913 84.5305 14.9232 86.5749 20.0784 86.5749H69.4206C74.5758 86.5749 79.5199 84.5305 83.1652 80.8914C86.8105 77.2523 88.8584 72.3166 88.8584 67.1702V31.7939C88.8583 26.8178 90.6705 22.0114 93.9571 18.2703L100.82 10.4487C96.5305 12.3494 92.509 14.8034 88.8584 17.7479Z" fill="white"/>
</svg>
