<svg width="17" height="16" viewBox="0 0 17 16" fill="none" xmlns="http://www.w3.org/2000/svg">
<path fill-rule="evenodd" clip-rule="evenodd" d="M13.4036 4.57453H17C17 1.6869 15.2698 0 12.3382 0H4.66178C1.73022 0 0 1.6869 0 4.5377V10.7623C0 13.6131 1.73022 15.3 4.66178 15.3H12.3382C15.2698 15.3 17 13.6131 17 10.7623V10.4971H13.4036C11.7344 10.4971 10.3813 9.17789 10.3813 7.55055C10.3813 5.92321 11.7344 4.604 13.4036 4.604V4.57453ZM13.4035 5.84155H16.3653C16.7158 5.84155 16.9999 6.11859 16.9999 6.46033V8.61132C16.9958 8.9514 16.7141 9.22612 16.3653 9.23009H13.4715C12.6265 9.24118 11.8876 8.67712 11.6959 7.87468C11.5999 7.37655 11.7347 6.86253 12.064 6.47039C12.3934 6.07824 12.8837 5.84807 13.4035 5.84155ZM13.532 8.103H13.8116C14.1705 8.103 14.4614 7.81937 14.4614 7.46949C14.4614 7.11961 14.1705 6.83598 13.8116 6.83598H13.532C13.3604 6.83401 13.1951 6.89911 13.073 7.01675C12.9509 7.13439 12.8823 7.29478 12.8823 7.46212C12.8822 7.81321 13.172 8.09896 13.532 8.103ZM4.0271 4.57464H8.82487C9.18374 4.57464 9.47465 4.291 9.47465 3.94113C9.47465 3.59125 9.18374 3.30762 8.82487 3.30762H4.0271C3.67116 3.30759 3.38146 3.58676 3.37732 3.93376C3.3773 4.28485 3.66702 4.5706 4.0271 4.57464Z" fill="#CBCBCB"/>
</svg>
