<svg width="24" height="24" viewBox="0 0 24 24" fill="none" xmlns="http://www.w3.org/2000/svg">
<path fill-rule="evenodd" clip-rule="evenodd" d="M10.2692 1.97375C9.49546 1.97375 8.83723 2.51141 8.65247 3.23607H14.8652C14.6805 2.51141 14.0222 1.97375 13.2485 1.97375H10.2692ZM16.6206 3.23625H18.9071C21.3322 3.23625 23.3069 5.23492 23.3069 7.68943C23.3069 7.68943 23.2376 8.72851 23.2145 10.1755C23.2122 10.29 23.1567 10.4023 23.0655 10.47C22.5101 10.8803 22.002 11.2193 21.9558 11.2426C20.0388 12.5283 17.8112 13.433 15.4381 13.883C15.2834 13.9134 15.131 13.8327 15.0524 13.6948C14.3873 12.5424 13.1447 11.792 11.759 11.792C10.3825 11.792 9.12838 12.5342 8.44359 13.6878C8.36391 13.8234 8.21379 13.9017 8.0602 13.8725C5.70674 13.4213 3.47916 12.5178 1.57376 11.2543L0.465162 10.4829C0.372779 10.4245 0.315039 10.3193 0.315039 10.2024C0.280396 9.60629 0.222656 7.68943 0.222656 7.68943C0.222656 5.23492 2.19734 3.23625 4.6224 3.23625H6.89733C7.11674 1.54146 8.53713 0.220703 10.2693 0.220703H13.2487C14.9808 0.220703 16.4012 1.54146 16.6206 3.23625ZM22.914 12.7041L22.8678 12.7275C20.5351 14.2937 17.729 15.334 14.7843 15.7664C14.3686 15.8249 13.9528 15.556 13.8374 15.1353C13.5833 14.1768 12.7634 13.5457 11.7818 13.5457H11.7703H11.7472C10.7656 13.5457 9.94573 14.1768 9.69167 15.1353C9.57619 15.556 9.16047 15.8249 8.74475 15.7664C5.80004 15.334 2.9939 14.2937 0.661231 12.7275C0.649683 12.7158 0.534205 12.6457 0.441822 12.7041C0.337891 12.7626 0.337891 12.9028 0.337891 12.9028L0.418726 18.8638C0.418726 21.3183 2.38187 23.3053 4.80692 23.3053H18.7106C21.1356 23.3053 23.0988 21.3183 23.0988 18.8638L23.1911 12.9028C23.1911 12.9028 23.1911 12.7626 23.0872 12.7041C23.0295 12.6691 22.9602 12.6807 22.914 12.7041ZM12.6256 17.6017C12.6256 18.0926 12.2445 18.4783 11.7595 18.4783C11.2861 18.4783 10.8934 18.0926 10.8934 17.6017V16.0939C10.8934 15.6147 11.2861 15.2173 11.7595 15.2173C12.2445 15.2173 12.6256 15.6147 12.6256 16.0939V17.6017Z" fill="#71B1FC"/>
</svg>
