<svg width="17" height="17" viewBox="0 0 17 17" fill="none" xmlns="http://www.w3.org/2000/svg">
<path fill-rule="evenodd" clip-rule="evenodd" d="M7.39873 1.29102C6.82894 1.29102 6.3442 1.68696 6.20813 2.22063H10.7834C10.6473 1.68696 10.1626 1.29102 9.59282 1.29102H7.39873ZM12.076 2.22075H13.7599C15.5458 2.22075 17 3.69264 17 5.50023C17 5.50023 16.949 6.26544 16.932 7.33105C16.9303 7.41541 16.8894 7.49804 16.8223 7.54796C16.4132 7.85009 16.039 8.09971 16.005 8.11692C14.5933 9.06375 12.9528 9.72998 11.2052 10.0614C11.0912 10.0837 10.979 10.0244 10.9212 9.92279C10.4313 9.07408 9.51626 8.52148 8.49575 8.52148C7.48204 8.52148 6.55848 9.06806 6.05418 9.91762C5.9955 10.0175 5.88494 10.0751 5.77184 10.0536C4.03867 9.72137 2.3982 9.05601 0.994998 8.12553L0.178589 7.55743C0.110555 7.51439 0.068034 7.43692 0.068034 7.35085C0.0425213 6.91186 0 5.50023 0 5.50023C0 3.69264 1.45423 2.22075 3.24012 2.22075H4.91546C5.07704 0.972653 6.12306 0 7.3987 0H9.5928C10.8684 0 11.9145 0.972653 12.076 2.22075ZM16.7109 9.19294L16.6769 9.21015C14.959 10.3636 12.8925 11.1296 10.7239 11.4481C10.4177 11.4912 10.1116 11.2932 10.0266 10.9833C9.83946 10.2775 9.23566 9.81268 8.5128 9.81268H8.50429H8.48728C7.76442 9.81268 7.16062 10.2775 6.97353 10.9833C6.88848 11.2932 6.58233 11.4912 6.27618 11.4481C4.10759 11.1296 2.04106 10.3636 0.323202 9.21015C0.314698 9.20155 0.229655 9.1499 0.161621 9.19294C0.085083 9.23598 0.085083 9.33927 0.085083 9.33927L0.144613 13.7291C0.144613 15.5367 1.59034 17 3.37623 17H13.6153C15.4012 17 16.847 15.5367 16.847 13.7291L16.915 9.33927C16.915 9.33927 16.915 9.23598 16.8385 9.19294C16.7959 9.16712 16.7449 9.17572 16.7109 9.19294ZM9.13355 12.7996C9.13355 13.1612 8.85291 13.4452 8.49573 13.4452C8.14705 13.4452 7.85791 13.1612 7.85791 12.7996V11.6893C7.85791 11.3364 8.14705 11.0437 8.49573 11.0437C8.85291 11.0437 9.13355 11.3364 9.13355 11.6893V12.7996Z" fill="#CBCBCB"/>
</svg>
